<?xml version="1.0" standalone="no"?>
<!DOCTYPE svg PUBLIC "-//W3C//DTD SVG 1.1//EN" "http://www.w3.org/Graphics/SVG/1.1/DTD/svg11.dtd" >
<svg>
<metadata>
Created by FontForge 20110222 at Tue Nov  5 00:07:23 2013
 By Orthosie Webhosting
Copyright (c) 1989, 1995, 2001 Adobe Systems Incorporated.  All Rights Reserved.
</metadata>
<defs>
<font id="VAGRoundedStdregular" horiz-adv-x="574" >
  <font-face 
    font-family="VAGRoundedStdregular"
    font-weight="700"
    font-stretch="normal"
    units-per-em="1000"
    panose-1="2 15 8 2 2 2 4 2 2 4"
    ascent="770"
    descent="-230"
    x-height="532"
    cap-height="718"
    bbox="-192 -310 1786 939"
    underline-thickness="50"
    underline-position="-50"
    unicode-range="U+0020-FB02"
  />
<missing-glyph horiz-adv-x="500" 
d="M0 700h500v-700h-500v700zM420 650h-340l170 -255zM450 95v510l-170 -255zM420 50l-170 255l-170 -255h340zM50 95l170 255l-170 255v-510z" />
    <glyph glyph-name="uniFB01" unicode="fi" horiz-adv-x="519" 
d="M74 406h-32q-63 0 -63 63t63 63h32v74q0 164 151 164q35 0 59 -14q29 -17 29 -51q0 -61 -53 -61q-22 0 -30 -7q-12 -10 -12 -46v-59h35q70 0 70 -63q0 -43 -19 -55q-8 -5 -22 -7q-9 -1 -29 -1h-35v-332q0 -80 -72 -80t-72 80v332zM336 458q0 80 72 80t72 -80v-384
q0 -80 -72 -80t-72 80v384zM465 730q24 -24 24 -55q0 -34 -24 -58q-23 -25 -57 -25q-32 0 -57 25q-24 25 -24 58q0 31 24 55q25 24 57 24t57 -24z" />
    <glyph glyph-name="uniFB02" unicode="fl" horiz-adv-x="519" 
d="M74 406h-32q-63 0 -63 63t63 63h32v74q0 164 151 164q35 0 59 -14q29 -17 29 -51q0 -61 -53 -61q-22 0 -30 -7q-12 -10 -12 -46v-59h35q70 0 70 -63q0 -43 -19 -55q-8 -5 -22 -7q-9 -1 -29 -1h-35v-332q0 -80 -72 -80t-72 80v332zM336 690q0 80 72 80t72 -80v-616
q0 -80 -72 -80t-72 80v616z" />
    <glyph glyph-name=".notdef" horiz-adv-x="500" 
d="M0 700h500v-700h-500v700zM420 650h-340l170 -255zM450 95v510l-170 -255zM420 50l-170 255l-170 -255h340zM50 95l170 255l-170 255v-510z" />
    <glyph glyph-name=".null" horiz-adv-x="0" 
 />
    <glyph glyph-name="nonmarkingreturn" horiz-adv-x="333" 
 />
    <glyph glyph-name="space" unicode=" " horiz-adv-x="268" 
 />
    <glyph glyph-name="exclam" unicode="!" horiz-adv-x="334" 
d="M95 656q0 68 72 68t72 -68v-385q0 -68 -72 -68t-72 68v385zM89 66q0 78 78 78t78 -78t-78 -78t-78 78z" />
    <glyph glyph-name="quotedbl" unicode="&#x22;" horiz-adv-x="444" 
d="M253 664q0 60 60 60t60 -60v-170q0 -60 -60 -60t-60 60v170zM71 664q0 60 60 60t60 -60v-170q0 -60 -60 -60t-60 60v170z" />
    <glyph glyph-name="numbersign" unicode="#" horiz-adv-x="600" 
d="M164 413h-86q-48 0 -48 48t48 48h100l22 161q7 48 50 48q46 0 46 -40q0 -8 -2 -24l-20 -145h96l22 161q7 48 50 48q46 0 46 -40q0 -8 -2 -24l-20 -145h86q48 0 48 -48t-48 -48h-100l-16 -114h86q48 0 48 -48t-48 -48h-100l-22 -161q-7 -48 -50 -48q-46 0 -46 40q0 8 2 24
l20 145h-96l-22 -161q-7 -48 -50 -48q-46 0 -46 40q0 8 2 24l20 145h-86q-48 0 -48 48t48 48h100zM245 299h95l16 114h-95z" />
    <glyph glyph-name="dollar" unicode="$" horiz-adv-x="537" 
d="M291 137q65 15 65 81q0 43 -65 65v-146zM237 576q-53 -14 -53 -61q0 -33 53 -53v114zM237 300q-4 1 -9 3l-65 19q-42 15 -69 33q-34 23 -52 55q-20 36 -20 87q0 93 63 156q60 59 152 69v31q0 47 27 47t27 -47v-31q25 -1 53 -6q32 -6 57 -17q65 -27 65 -75q0 -74 -67 -74
q-18 0 -50 12l-27 9q-16 4 -31 6v-133l38 -11l38 -13q44 -17 74 -38q36 -26 55 -63q22 -42 22 -99q0 -97 -67 -161q-63 -60 -160 -68v-32q0 -47 -27 -47t-27 47v31q-35 1 -68 6q-41 6 -71 18q-79 29 -79 86q0 71 67 71q14 0 34 -5q12 -3 36 -12l39 -13q23 -6 42 -8v167z" />
    <glyph glyph-name="percent" unicode="%" horiz-adv-x="722" 
d="M237 562q0 60 -52 60t-52 -60q0 -59 52 -59t52 59zM75 449q-44 47 -44 113t44 114t110 48t110 -48t44 -114t-44 -113q-44 -48 -110 -48t-110 48zM427 36q-44 47 -44 113t44 114t110 48t110 -48t44 -114t-44 -113q-44 -48 -110 -48t-110 48zM589 149q0 60 -52 60t-52 -60
q0 -59 52 -59t52 59zM480 698q17 32 46 32q59 0 59 -56q0 -15 -8 -30l-336 -629q-24 -33 -45 -33q-20 0 -38 16q-19 17 -19 39q0 10 4 21l6 16z" />
    <glyph glyph-name="ampersand" unicode="&#x26;" horiz-adv-x="704" 
d="M254 339q-40 -26 -60 -50q-26 -32 -26 -71q0 -98 104 -98q66 0 127 58zM501 276l39 45q40 46 76 46q55 0 55 -63q0 -33 -55 -95l-25 -27l68 -77q22 -25 22 -50q0 -26 -21 -46q-21 -21 -49 -21q-31 0 -53 23l-69 72q-53 -47 -101 -69q-56 -26 -119 -26q-105 0 -173 56
q-72 59 -72 160q0 70 45 129q39 51 106 88q-32 32 -48 61q-18 35 -18 74q0 80 66 127q59 41 144 41q77 0 136 -39q68 -44 68 -118q0 -56 -39 -105q-34 -42 -88 -70zM362 598q-18 12 -43 12q-21 0 -40 -14q-20 -15 -20 -36q0 -34 53 -86q30 15 48 31q25 23 25 47q0 30 -23 46
z" />
    <glyph glyph-name="quotesingle" unicode="'" horiz-adv-x="240" 
d="M60 664q0 60 60 60t60 -60v-170q0 -60 -60 -60t-60 60v170z" />
    <glyph glyph-name="parenleft" unicode="(" horiz-adv-x="241" 
d="M236 666q0 -5 -2 -14q-2 -8 -6 -19q-2 -9 -6 -19l-5 -14q-52 -161 -52 -315q0 -76 11 -150q12 -79 35 -146l6 -16q5 -13 8 -25l8 -23q3 -12 3 -15q0 -64 -64 -64q-30 0 -52 38q-19 33 -35 87q-14 48 -25 109q-21 114 -21 205q0 38 6 96q7 65 19 126q13 71 31 121
q20 58 44 83q12 13 33 13q64 0 64 -58z" />
    <glyph glyph-name="parenright" unicode=")" horiz-adv-x="241" 
d="M5 -96q0 5 2 14q2 8 6 19q2 9 6 19l5 14q52 161 52 315q0 76 -11 150q-12 79 -35 146l-6 16q-5 13 -8 25l-8 23q-3 12 -3 15q0 64 64 64q30 0 52 -38q19 -33 35 -87q14 -48 25 -109q21 -114 21 -205q0 -38 -6 -96q-7 -65 -18 -126q-14 -71 -32 -121q-20 -58 -44 -83
q-12 -13 -33 -13q-64 0 -64 58z" />
    <glyph glyph-name="asterisk" unicode="*" horiz-adv-x="389" 
d="M245 672q0 -9 -3 -30q-1 -1 -1 -4l-4 -29l29 22q5 3 8 6q19 13 34 13q52 0 52 -58q0 -24 -28 -39q-9 -5 -26 -12q-19 -7 -26 -11l26 -11q17 -6 26 -11q28 -15 28 -39q0 -59 -52 -59q-14 0 -34 14l-37 28l4 -29q0 -3 1 -4q3 -21 3 -30q0 -46 -51 -46t-51 46q0 9 3 30
q1 1 1 4l4 29l-39 -28q-19 -14 -33 -14q-50 0 -50 59q0 24 28 39q9 5 26 11l25 11q-7 4 -25 11q-17 7 -26 12q-28 15 -28 39q0 58 50 58q14 0 33 -13l39 -28l-4 29q0 3 -1 4q-3 21 -3 30q0 46 51 46t51 -46z" />
    <glyph glyph-name="plus" unicode="+" horiz-adv-x="600" 
d="M240 458q0 60 60 60t60 -60v-145h145q60 0 60 -60t-60 -60h-145v-145q0 -60 -60 -60t-60 60v145h-145q-60 0 -60 60t60 60h145v145z" />
    <glyph glyph-name="comma" unicode="," horiz-adv-x="268" 
d="M115 -100q-18 -34 -57 -34q-68 0 -68 66q0 9 4 20q1 5 4 10q1 4 4 10l83 150q19 34 58 34q69 0 69 -66q0 -9 -4 -20l-9 -20z" />
    <glyph glyph-name="hyphen" unicode="-" horiz-adv-x="389" 
d="M301 353q57 -5 57 -64q0 -57 -57 -62h-213q-57 5 -57 62q0 59 57 64h213z" />
    <glyph glyph-name="period" unicode="." horiz-adv-x="268" 
d="M134 144q78 0 78 -78t-78 -78t-78 78t78 78z" />
    <glyph glyph-name="slash" unicode="/" horiz-adv-x="407" 
d="M284 687q15 37 56 37q59 0 59 -55q0 -7 -9 -28l-266 -616q-17 -37 -56 -37q-60 0 -60 55q0 7 9 28z" />
    <glyph glyph-name="zero" unicode="0" 
d="M347 150q21 23 33 63q9 33 13 77q3 30 3 66q0 38 -3 68q-4 44 -13 77q-12 40 -33 61q-24 26 -60 26t-60 -26q-21 -21 -33 -61q-9 -33 -13 -77q-3 -30 -3 -68q0 -36 3 -66q4 -44 13 -77q12 -40 33 -63q24 -26 60 -26t60 26zM160 23q-48 31 -81 88q-29 51 -44 119
q-13 60 -13 126t13 126q15 68 44 119q33 57 81 88q55 35 127 35t127 -35q48 -31 81 -88q29 -51 44 -119q13 -60 13 -126t-13 -126q-15 -68 -44 -119q-33 -57 -81 -88q-55 -35 -127 -35t-127 35z" />
    <glyph glyph-name="one" unicode="1" horiz-adv-x="370" 
d="M152 574h-59q-68 0 -68 69t68 69h142q67 0 67 -71v-569q0 -78 -75 -78t-75 78v502z" />
    <glyph glyph-name="two" unicode="2" 
d="M451 132q78 0 78 -66t-72 -66h-334q-78 0 -78 66q0 14 8 29q3 6 7 12l39 47q14 15 32 36l64 72q36 42 63 75q33 41 59 79q16 23 24 43q11 25 11 50q0 77 -72 77q-39 0 -59 -25q-14 -17 -26 -56l-10 -30q-6 -16 -12 -26q-17 -25 -49 -25q-73 0 -73 73q0 93 71 161
q70 66 164 66q95 0 157 -56q65 -59 65 -152q0 -49 -26 -104q-21 -45 -62 -100q-17 -22 -39 -48q-15 -19 -40 -46l-73 -86h183z" />
    <glyph glyph-name="three" unicode="3" 
d="M432 662q52 -54 52 -121q0 -101 -82 -153q122 -56 122 -179q0 -91 -73 -155q-73 -66 -179 -66q-104 0 -175 64q-65 58 -65 124q0 28 25 48q23 19 52 19q22 0 39 -18q6 -7 13 -19l14 -21q17 -28 35 -41q26 -18 64 -18q39 0 67 27q27 27 27 66q0 47 -27 67q-17 12 -58 19
l-31 5q-17 4 -27 10q-27 15 -27 54q0 35 22 51q13 10 49 19q35 9 49 20q22 18 22 55q0 67 -72 67q-32 0 -54 -15q-15 -11 -31 -34l-5 -7q-1 -1 -1 -2q-4 -6 -7 -9q-7 -10 -13 -16q-17 -15 -39 -15q-65 0 -65 74q0 59 67 110q69 52 151 52q100 0 161 -62z" />
    <glyph glyph-name="four" unicode="4" 
d="M86 157q-34 0 -53 20q-17 17 -17 39q0 14 5 27l233 423q32 58 102 58q48 0 79 -30q36 -34 36 -98v-307h17q70 0 70 -66t-70 -66h-17v-85q0 -78 -72 -78t-72 78v85h-241zM327 568h-2l-135 -279h137v279z" />
    <glyph glyph-name="five" unicode="5" 
d="M235 468q23 5 37 7q21 3 38 3q89 0 149 -63q58 -61 58 -150q0 -128 -68 -201q-70 -76 -197 -76q-67 0 -137 34q-83 41 -83 100q0 68 68 68q13 0 32 -10l35 -22q24 -15 41 -22q24 -10 47 -10q49 0 79 42q27 37 27 89q0 101 -96 101q-19 0 -36 -5q-10 -3 -26 -11
q-16 -9 -24 -12q-15 -5 -32 -5q-27 0 -44 17q-15 15 -15 30q0 8 1 18l27 227q8 57 25 77q16 18 53 18h241q73 0 73 -63q0 -45 -28 -63q-10 -7 -23 -10l-11 -2h-196z" />
    <glyph glyph-name="six" unicode="6" 
d="M104 62q-68 71 -68 174q0 54 25 122q23 61 64 128q37 60 83 117q42 53 82 90q5 5 15 12q3 3 8 6l9 6q7 5 16 6q4 1 7 1h7q22 0 46 -23q25 -24 25 -50q0 -15 -21 -41q-13 -16 -34 -39l-74 -83q-19 -22 -30 -38l2 -2q27 12 63 12q88 0 150 -68q59 -66 59 -156
q0 -100 -70 -173q-73 -75 -181 -75q-112 0 -183 74zM192 236q0 -44 25 -73q27 -31 70 -31q95 0 95 104q0 43 -24 72q-26 32 -71 32q-95 0 -95 -104z" />
    <glyph glyph-name="seven" unicode="7" horiz-adv-x="538" 
d="M345 574h-256q-74 0 -74 69t74 69h362q34 0 55 -26q17 -22 17 -46q0 -13 -7 -31l-16 -35l-248 -504q-38 -76 -84 -76q-38 0 -62 25q-21 21 -21 46q0 15 10 35z" />
    <glyph glyph-name="eight" unicode="8" 
d="M196 226q0 -41 23 -69q25 -31 68 -31q41 0 67 31q24 29 24 69q0 100 -91 100t-91 -100zM112 52q-72 65 -72 164q0 115 107 173q-76 55 -76 143q0 86 63 140q61 52 153 52q90 0 152 -52q65 -54 65 -140q0 -94 -77 -143q107 -53 107 -173q0 -102 -73 -166q-71 -62 -174 -62
q-105 0 -175 64zM215 516q0 -76 72 -76q73 0 73 76t-73 76q-72 0 -72 -76z" />
    <glyph glyph-name="nine" unicode="9" 
d="M470 650q68 -71 68 -174q0 -54 -25 -122q-23 -61 -64 -128q-37 -60 -83 -117q-42 -53 -82 -90q-5 -5 -14 -12l-18 -12q-7 -5 -16 -6q-4 -1 -7 -1h-7q-22 0 -46 23q-25 24 -25 50q0 15 21 41q13 16 34 39l74 83q19 22 30 38l-2 2q-27 -12 -63 -12q-88 0 -149 68
q-60 66 -60 156q0 100 70 173q73 75 181 75q112 0 183 -74zM382 476q0 44 -25 73q-27 31 -70 31q-95 0 -95 -104q0 -43 24 -72q26 -32 71 -32q95 0 95 104z" />
    <glyph glyph-name="colon" unicode=":" horiz-adv-x="268" 
d="M134 465q78 0 78 -78t-78 -78t-78 78t78 78zM134 144q78 0 78 -78t-78 -78t-78 78t78 78z" />
    <glyph glyph-name="semicolon" unicode=";" horiz-adv-x="268" 
d="M212 90q0 -9 -4 -20l-9 -20l-84 -150q-18 -34 -57 -34q-68 0 -68 66q0 9 4 20q1 5 4 10q1 4 4 10l83 150q19 34 58 34q69 0 69 -66zM134 465q78 0 78 -78t-78 -78t-78 78t78 78z" />
    <glyph glyph-name="less" unicode="&#x3c;" horiz-adv-x="600" 
d="M529 114q36 -15 36 -51q0 -63 -48 -63h-8l-9 2q-14 3 -33 12l-395 182q-37 16 -37 57t37 57l395 181q19 9 33 13l9 2h8q48 0 48 -63q0 -36 -36 -51l-333 -139z" />
    <glyph glyph-name="equal" unicode="=" horiz-adv-x="600" 
d="M505 425q60 0 60 -60t-60 -60h-410q-60 0 -60 60t60 60h410zM505 201q60 0 60 -60t-60 -60h-410q-60 0 -60 60t60 60h410z" />
    <glyph glyph-name="greater" unicode="&#x3e;" horiz-adv-x="600" 
d="M404 253l-333 139q-36 15 -36 51q0 63 48 63h8l10 -2q13 -4 32 -13l395 -181q37 -16 37 -57t-37 -57l-395 -182q-19 -9 -32 -12l-10 -2h-8q-48 0 -48 63q0 36 36 51z" />
    <glyph glyph-name="question" unicode="?" horiz-adv-x="481" 
d="M147 372q0 24 25 36q10 5 26 9q5 2 15 4l15 4q38 10 55 25q25 21 25 60q0 32 -26 55q-24 21 -57 21q-28 0 -52 -15q-15 -11 -36 -34q-1 -2 -4 -5l-12 -14q-9 -10 -17 -16q-19 -15 -40 -15q-61 0 -61 72q0 73 77 122q68 43 145 43q101 0 168 -57q71 -60 71 -157
q0 -80 -48 -133q-44 -49 -125 -69v-36q0 -69 -72 -69t-72 69v100zM141 66q0 78 78 78t78 -78t-78 -78t-78 78z" />
    <glyph glyph-name="at" unicode="@" horiz-adv-x="800" 
d="M431 285q28 32 28 75q0 85 -76 85q-38 0 -67 -35q-27 -33 -27 -72q0 -34 17 -59q20 -27 53 -27q43 0 72 33zM654 633q114 -95 114 -230q0 -68 -33 -122q-28 -45 -77 -78q-39 -26 -86 -41q-38 -12 -61 -12q-69 0 -69 49h-2q-41 -49 -105 -49q-62 0 -106 55q-42 52 -42 119
q0 89 53 154q56 69 142 69q78 0 117 -60h2v12q0 48 56 48q46 0 46 -28q0 -9 -1 -17l-43 -197q-4 -16 -4 -33q0 -21 23 -21q30 0 61 36q39 44 39 116q0 103 -85 169q-79 62 -193 62q-115 0 -197 -81q-81 -81 -81 -197q0 -115 81 -197q82 -81 197 -81q120 0 208 47q7 3 17 11
l17 15q22 17 33 17q37 0 37 -37q0 -21 -27 -54q-54 -49 -133 -71q-65 -18 -152 -18q-152 0 -260 108t-108 260t108 260t260 108q145 0 254 -91z" />
    <glyph glyph-name="A" unicode="A" horiz-adv-x="630" 
d="M210 641q31 83 107 83q78 0 107 -83l196 -544q4 -11 6 -22q2 -9 2 -15q0 -66 -69 -66q-56 0 -73 52l-30 94h-278l-30 -93q-17 -53 -72 -53q-74 0 -74 70q0 10 3 21zM221 278h190l-93 290h-2z" />
    <glyph glyph-name="B" unicode="B" 
d="M45 637q0 75 79 75h192q80 0 133 -48q55 -50 55 -128q0 -103 -93 -147v-2q64 -9 108 -57t44 -113q0 -104 -64 -161q-62 -56 -168 -56h-206q-80 0 -80 76v561zM195 430h78q81 0 81 79q0 71 -81 71h-78v-150zM195 132h118q94 0 94 87q0 79 -106 79h-106v-166z" />
    <glyph glyph-name="C" unicode="C" horiz-adv-x="611" 
d="M113 618q97 106 248 106q31 0 64 -5q40 -6 71 -18q80 -31 80 -89q0 -67 -62 -67q-13 0 -29 5l-23 9q-5 2 -8 4q-21 8 -39 12q-26 5 -54 5q-89 0 -140 -68q-48 -62 -48 -159q0 -94 48 -155q51 -66 140 -66q28 0 55 7q18 4 41 14q3 2 8 4q2 0 5 2l20 8q17 7 30 7
q30 0 50 -25q16 -21 16 -43q0 -63 -85 -95q-32 -12 -74 -18q-34 -5 -66 -5q-151 0 -248 106q-96 105 -96 262q0 158 96 262z" />
    <glyph glyph-name="D" unicode="D" horiz-adv-x="667" 
d="M45 635q0 77 77 77h166q166 0 260 -100q92 -97 92 -266q0 -157 -94 -252q-93 -94 -248 -94h-174q-30 0 -52 16q-27 20 -27 59v560zM195 138h101q93 0 142 63q46 57 46 152q0 101 -47 159q-52 62 -151 62h-91v-436z" />
    <glyph glyph-name="E" unicode="E" horiz-adv-x="463" 
d="M45 625q0 87 78 87h248q71 0 71 -69t-71 -69h-176v-146h164q73 0 73 -69t-73 -69h-164v-152h185q71 0 71 -69t-71 -69h-258q-77 0 -77 75v550z" />
    <glyph glyph-name="F" unicode="F" horiz-adv-x="444" 
d="M45 634q0 78 78 78h256q67 0 67 -69t-67 -69h-184v-146h155q72 0 72 -68q0 -70 -72 -70h-155v-218q0 -78 -75 -78t-75 78v562z" />
    <glyph glyph-name="G" unicode="G" horiz-adv-x="704" 
d="M599 422q88 0 88 -96q0 -147 -88 -241q-90 -97 -238 -97q-151 0 -248 106q-96 105 -96 262q0 158 96 262q97 106 248 106q111 0 194 -44q81 -43 81 -97q0 -70 -62 -70q-22 0 -44 11l-39 26q-26 16 -51 25q-35 11 -79 11q-89 0 -141 -70q-47 -63 -47 -160q0 -98 46 -161
q51 -69 142 -69q68 0 115 36q55 43 55 122h-102q-70 0 -70 70q0 68 70 68h170z" />
    <glyph glyph-name="H" unicode="H" horiz-adv-x="704" 
d="M45 640q0 78 75 78t75 -78v-212h314v212q0 78 75 78t75 -78v-568q0 -78 -75 -78t-75 78v218h-314v-218q0 -78 -75 -78t-75 78v568z" />
    <glyph glyph-name="I" unicode="I" horiz-adv-x="240" 
d="M45 640q0 78 75 78t75 -78v-568q0 -78 -75 -78t-75 78v568z" />
    <glyph glyph-name="J" unicode="J" horiz-adv-x="407" 
d="M368 200q0 -115 -65 -169q-27 -23 -64 -33q-32 -10 -69 -10q-66 0 -118 24q-66 32 -66 90q0 22 16 41q17 20 40 20q13 0 29 -6q9 -3 29 -12q19 -10 30 -13q17 -6 32 -6q37 0 49 30q5 11 6 27q1 10 1 27v430q0 78 75 78t75 -78v-440z" />
    <glyph glyph-name="K" unicode="K" horiz-adv-x="611" 
d="M45 644q0 74 75 74t75 -74v-216l246 262q11 12 23 19q16 9 35 9q74 0 74 -72q0 -31 -49 -80l-189 -186l231 -241q42 -42 42 -76q0 -69 -78 -69q-32 0 -76 47l-259 280v-255q0 -72 -75 -72t-75 72v578z" />
    <glyph glyph-name="L" unicode="L" horiz-adv-x="426" 
d="M45 640q0 78 75 78t75 -78v-502h178q36 0 56 -23q17 -21 16 -49q-4 -66 -72 -66h-250q-78 0 -78 82v558z" />
    <glyph glyph-name="M" unicode="M" horiz-adv-x="870" 
d="M118 641q5 29 31 52q29 25 67 25q78 0 100 -72l118 -396h2l118 396q22 72 100 72q38 0 67 -25q26 -23 31 -52l93 -558q1 -4 1 -9v-8q0 -72 -72 -72q-68 0 -78 70l-59 407h-2l-120 -419q-7 -24 -22 -38q-22 -20 -58 -20t-58 20q-15 14 -22 38l-120 419h-2l-59 -407
q-10 -70 -78 -70q-72 0 -72 72v8q0 5 1 9z" />
    <glyph glyph-name="N" unicode="N" horiz-adv-x="685" 
d="M39 640q0 78 75 78q39 0 63 -33l317 -423h2v378q0 78 75 78t75 -78v-568q0 -78 -75 -78q-37 0 -63 33l-317 418h-2v-373q0 -78 -75 -78t-75 78v568z" />
    <glyph glyph-name="O" unicode="O" horiz-adv-x="722" 
d="M503 195q46 63 46 161q0 97 -47 160q-52 70 -141 70t-141 -70q-47 -63 -47 -160q0 -98 46 -161q51 -69 142 -69t142 69zM113 94q-96 105 -96 262q0 158 96 262q97 106 248 106q149 0 247 -108q97 -106 97 -260q0 -157 -95 -262q-97 -106 -249 -106q-151 0 -248 106z" />
    <glyph glyph-name="P" unicode="P" horiz-adv-x="556" 
d="M45 634q0 78 78 78h177q111 0 183 -66q73 -67 73 -173q0 -107 -74 -173q-70 -64 -176 -64h-111v-164q0 -78 -75 -78t-75 78v562zM195 368h102q103 0 103 106t-103 106h-102v-212z" />
    <glyph glyph-name="Q" unicode="Q" horiz-adv-x="722" 
d="M537 32q-77 -44 -176 -44q-151 0 -248 106q-96 105 -96 262q0 158 96 262q97 106 248 106q149 0 247 -108q97 -106 97 -260q0 -135 -67 -231l57 -49q35 -31 35 -61q0 -26 -22 -45q-21 -18 -47 -18q-29 0 -67 32zM525 228q24 54 24 128q0 96 -47 160q-52 70 -141 70
t-141 -70q-47 -63 -47 -160q0 -98 46 -161q51 -69 142 -69q29 0 64 7l-36 35q-19 17 -19 40q0 72 68 72q19 0 38 -13z" />
    <glyph glyph-name="R" unicode="R" horiz-adv-x="556" 
d="M45 634q0 78 77 78h176q119 0 182 -54q67 -57 67 -172q0 -79 -54 -130q-50 -46 -131 -59l170 -182q20 -21 20 -44q0 -30 -21 -53q-22 -24 -54 -24q-36 0 -58 26l-222 269h-2v-217q0 -78 -75 -78t-75 78v562zM195 397h103q93 0 93 89q0 88 -93 88h-103v-177z" />
    <glyph glyph-name="S" unicode="S" horiz-adv-x="537" 
d="M324 719q36 -5 65 -15q77 -28 77 -80q0 -74 -67 -74q-13 0 -30 5q-6 1 -14 4q-3 2 -8 3l-7 3q-20 7 -34 10q-20 5 -40 5q-82 0 -82 -65q0 -33 52 -53q17 -7 54 -18l30 -8q17 -6 31 -10q36 -13 61 -26q32 -18 54 -40q52 -52 52 -140q0 -104 -76 -170q-73 -62 -180 -62
q-35 0 -70 4q-46 6 -80 17q-43 13 -66 34q-27 24 -27 57q0 71 67 71q15 0 37 -6l40 -13q27 -10 44 -14q25 -6 47 -6q102 0 102 86q0 38 -52 61q-19 8 -54 18l-61 18q-36 11 -61 23q-32 15 -54 34q-52 46 -52 125q0 102 74 166q71 61 174 61q25 0 54 -5z" />
    <glyph glyph-name="T" unicode="T" horiz-adv-x="480" 
d="M165 574h-109q-68 0 -68 69t68 69h368q68 0 68 -69t-68 -69h-109v-502q0 -78 -75 -78t-75 78v502z" />
    <glyph glyph-name="U" unicode="U" horiz-adv-x="685" 
d="M39 640q0 78 75 78t75 -78v-349q0 -71 41 -117q43 -48 113 -48q67 0 111 50q42 47 42 115v349q0 78 75 78t75 -78v-357q0 -125 -90 -210q-88 -85 -213 -85q-127 0 -215 84q-89 85 -89 211v357z" />
    <glyph glyph-name="V" unicode="V" horiz-adv-x="592" 
d="M3 609q-7 18 -7 37q0 72 77 72q44 0 68 -49l155 -416l155 416q24 49 68 49q77 0 77 -72q0 -19 -7 -37l-219 -557q-11 -28 -25 -41q-19 -17 -49 -17t-49 17q-14 13 -25 41z" />
    <glyph glyph-name="W" unicode="W" horiz-adv-x="908" 
d="M12 618q-4 17 -4 34q0 66 71 66q65 0 80 -72l85 -425h2l130 438q18 59 78 59t78 -59l130 -438h2l85 425q15 72 80 72q71 0 71 -66q0 -17 -4 -34l-127 -546q-19 -78 -99 -78q-78 0 -99 73l-116 386h-2l-116 -386q-21 -73 -99 -73q-80 0 -99 78z" />
    <glyph glyph-name="X" unicode="X" horiz-adv-x="612" 
d="M219 381l-162 220q-16 21 -16 44q0 73 76 73q39 0 65 -37l124 -176l124 176q26 37 65 37q76 0 76 -73q0 -23 -16 -44l-162 -220l198 -266q17 -23 17 -51q0 -70 -76 -70q-38 0 -62 33l-164 228l-164 -228q-24 -33 -62 -33q-76 0 -76 70q0 28 17 51z" />
    <glyph glyph-name="Y" unicode="Y" horiz-adv-x="536" 
d="M193 334l-189 266q-14 20 -14 45q0 73 72 73q41 0 62 -30l144 -209l144 209q21 30 62 30q72 0 72 -73q0 -25 -14 -45l-189 -266v-267q0 -73 -75 -73t-75 73v267z" />
    <glyph glyph-name="Z" unicode="Z" horiz-adv-x="593" 
d="M499 132q72 0 72 -66q0 -28 -22 -47t-50 -19h-393q-84 0 -84 72q0 30 20 58l322 450h-263q-70 0 -70 64q0 68 70 68h366q84 0 84 -72q0 -35 -22 -64l-320 -444h290z" />
    <glyph glyph-name="bracketleft" unicode="[" horiz-adv-x="278" 
d="M44 652q0 72 73 72h100q53 0 53 -57t-53 -57h-47v-650h47q53 0 53 -57t-53 -57h-100q-73 0 -73 72v734z" />
    <glyph glyph-name="backslash" unicode="\" horiz-adv-x="407" 
d="M390 71q9 -21 9 -28q0 -55 -60 -55q-40 0 -55 37l-268 616q-8 22 -8 28q0 55 59 55q41 0 56 -37z" />
    <glyph glyph-name="bracketright" unicode="]" horiz-adv-x="278" 
d="M234 -82q0 -72 -73 -72h-100q-53 0 -53 57t53 57h47v650h-47q-53 0 -53 57t53 57h100q73 0 73 -72v-734z" />
    <glyph glyph-name="asciicircum" unicode="^" horiz-adv-x="600" 
d="M175 337q-16 -22 -51 -22q-51 0 -51 40q0 16 13 40l161 293q15 30 53 30t53 -30l161 -293q13 -24 13 -40q0 -40 -51 -40q-35 0 -51 22l-125 231z" />
    <glyph glyph-name="underscore" unicode="_" horiz-adv-x="500" 
d="M0 -125q-29 0 -29 25t29 25h500q29 0 29 -25t-29 -25h-500z" />
    <glyph glyph-name="grave" unicode="`" horiz-adv-x="222" 
d="M206 711q28 -15 28 -40q0 -27 -15 -50q-16 -23 -38 -23q-11 0 -40 10l-112 44q-41 15 -41 59q0 22 16 41q17 21 38 21q13 0 38 -10z" />
    <glyph glyph-name="a" unicode="a" 
d="M533 88q0 -20 -1 -30q-2 -18 -8 -31q-15 -33 -60 -33q-53 0 -69 61q-56 -67 -137 -67q-102 0 -170 78t-68 199q0 118 70 199q69 80 168 80q90 0 137 -66q7 60 69 60q45 0 60 -33q6 -13 8 -31q1 -10 1 -30v-356zM192 167q31 -47 86 -47q53 0 84 47q27 41 27 98
q0 58 -27 99q-31 48 -84 48q-55 0 -87 -48q-27 -41 -27 -99q0 -57 28 -98z" />
    <glyph glyph-name="b" unicode="b" 
d="M41 690q0 80 72 80t72 -80v-196q58 50 137 50q109 0 174 -90q58 -81 58 -195q0 -107 -64 -186q-69 -85 -173 -85q-91 0 -132 66q-14 -60 -72 -60q-72 0 -72 80v616zM212 169q31 -49 86 -49q52 0 84 47q28 42 28 98q0 57 -28 99q-32 48 -84 48q-54 0 -85 -45
q-28 -39 -28 -97q0 -59 27 -101z" />
    <glyph glyph-name="c" unicode="c" horiz-adv-x="463" 
d="M439 407q-16 -23 -40 -23q-17 0 -53 14q-37 14 -61 14q-58 0 -91 -46q-30 -41 -30 -101q0 -57 31 -99q35 -46 90 -46q20 0 61 15l14 6q8 3 13 4q14 5 19 5q62 0 62 -63q0 -49 -68 -77q-53 -22 -108 -22q-114 0 -187 82q-71 80 -71 195q0 113 72 194q75 85 186 85
q24 0 52 -4q32 -6 57 -15q67 -26 67 -72q0 -25 -15 -46z" />
    <glyph glyph-name="d" unicode="d" 
d="M533 74q0 -80 -72 -80q-58 0 -72 60q-40 -66 -132 -66q-104 0 -173 85q-64 79 -64 186q0 114 58 195q65 90 174 90q79 0 137 -50v196q0 80 72 80t72 -80v-616zM361 367q-31 45 -85 45q-52 0 -84 -48q-28 -42 -28 -99q0 -56 28 -98q32 -47 84 -47q55 0 86 49q27 42 27 101
q0 58 -28 97z" />
    <glyph glyph-name="e" unicode="e" horiz-adv-x="537" 
d="M157 218q7 -51 47 -79q36 -25 89 -25q25 0 51 9q19 7 44 20l19 11q11 6 18 9q19 9 31 9q59 0 59 -62q0 -45 -77 -84q-76 -38 -158 -38q-120 0 -196 79q-74 77 -74 198q0 113 72 194q75 85 186 85t188 -86q71 -79 71 -176q0 -64 -63 -64h-307zM383 314q-14 110 -115 110
t-114 -110h229z" />
    <glyph glyph-name="f" unicode="f" horiz-adv-x="296" 
d="M74 406h-32q-63 0 -63 63t63 63h32v74q0 164 151 164q44 0 69 -14q31 -16 31 -51q0 -61 -59 -61q-24 0 -33 -7q-15 -11 -15 -46v-59h45q73 0 73 -63t-73 -63h-45v-332q0 -80 -72 -80t-72 80v332z" />
    <glyph glyph-name="g" unicode="g" 
d="M533 42q0 -126 -77 -195q-73 -65 -200 -65q-25 0 -60 6q-41 7 -76 18q-41 15 -64 34q-27 22 -27 50q0 21 19 42t39 21q15 0 36 -7l24 -9q1 -1 3 -1l3 -1q6 -3 10 -4q27 -11 47 -16q29 -7 57 -7q122 0 122 114v34h-2q-46 -68 -145 -68q-107 0 -168 84q-54 76 -54 192
q0 113 64 194q68 86 173 86q92 0 132 -66q14 60 72 60q72 0 72 -80v-416zM362 363q-31 49 -86 49q-52 0 -84 -47q-28 -42 -28 -98q0 -62 28 -102q31 -45 84 -45q54 0 85 45q28 39 28 97q0 59 -27 101z" />
    <glyph glyph-name="h" unicode="h" horiz-adv-x="556" 
d="M41 690q0 80 72 80t72 -80v-196h2q21 26 60 39q33 11 71 11q87 0 141 -51q56 -53 56 -143v-276q0 -80 -72 -80t-72 80v251q0 99 -94 99q-92 0 -92 -99v-251q0 -80 -72 -80t-72 80v616z" />
    <glyph glyph-name="i" unicode="i" horiz-adv-x="222" 
d="M39 458q0 80 72 80t72 -80v-384q0 -80 -72 -80t-72 80v384zM168 730q24 -24 24 -55q0 -34 -24 -58q-23 -25 -57 -25q-32 0 -57 25q-24 25 -24 58q0 31 24 55q25 24 57 24t57 -24z" />
    <glyph glyph-name="j" unicode="j" horiz-adv-x="222" 
d="M104 752h11q39 0 67 -43q8 -17 8 -30v-11q0 -41 -46 -70q-17 -7 -35 -7q-51 0 -76 60q-4 12 -4 23q0 47 54 74q14 4 21 4zM112 539q51 0 69 -59l1 -16v-371q0 -223 -115 -282q-59 -28 -128 -28q-101 2 -128 54l-3 17v10q0 40 46 59q10 5 27 5h3q11 0 59 -8h9q56 0 74 48
q12 30 12 146v350q0 48 42 69q13 6 32 6z" />
    <glyph glyph-name="k" unicode="k" horiz-adv-x="500" 
d="M41 690q0 80 72 80t72 -80v-336l158 153q32 31 65 31q61 0 61 -65q0 -32 -28 -57l-128 -114l169 -198q18 -21 18 -48q0 -68 -68 -68q-33 0 -69 44l-176 217h-2v-175q0 -80 -72 -80t-72 80v616z" />
    <glyph glyph-name="l" unicode="l" horiz-adv-x="222" 
d="M39 690q0 80 72 80t72 -80v-616q0 -80 -72 -80t-72 80v616z" />
    <glyph glyph-name="m" unicode="m" horiz-adv-x="852" 
d="M41 458q0 80 72 80q58 0 66 -54q55 60 134 60q91 0 149 -73q63 73 152 73q90 0 142 -50q55 -51 55 -144v-276q0 -80 -72 -80t-72 80v251q0 99 -84 99q-85 0 -85 -99v-251q0 -80 -72 -80t-72 80v251q0 99 -84 99q-85 0 -85 -99v-251q0 -80 -72 -80t-72 80v384z" />
    <glyph glyph-name="n" unicode="n" horiz-adv-x="556" 
d="M41 458q0 80 72 80q58 0 66 -53q42 59 139 59q87 0 141 -51q56 -53 56 -143v-276q0 -80 -72 -80t-72 80v251q0 99 -94 99q-92 0 -92 -99v-251q0 -80 -72 -80t-72 80v384z" />
    <glyph glyph-name="o" unicode="o" horiz-adv-x="556" 
d="M464 459q72 -81 72 -194q0 -115 -71 -195q-73 -82 -187 -82t-187 82q-71 80 -71 195q0 113 72 194q75 85 186 85t186 -85zM191 364q-27 -41 -27 -99q0 -57 28 -98q31 -47 86 -47t86 47q28 41 28 98q0 58 -27 99q-32 48 -87 48t-87 -48z" />
    <glyph glyph-name="p" unicode="p" 
d="M41 458q0 80 72 80q58 0 72 -60q41 66 137 66q109 0 174 -90q58 -81 58 -195q0 -107 -64 -186q-69 -85 -173 -85q-74 0 -132 50v-176q0 -80 -72 -80t-72 80v596zM212 169q31 -49 86 -49q52 0 84 47q28 42 28 98q0 57 -28 99q-32 48 -84 48q-54 0 -85 -45q-28 -39 -28 -97
q0 -59 27 -101z" />
    <glyph glyph-name="q" unicode="q" 
d="M533 -138q0 -80 -72 -80t-72 80v176q-58 -50 -132 -50q-104 0 -173 85q-64 79 -64 186q0 114 58 195q65 90 174 90q97 0 137 -66q14 60 72 60q72 0 72 -80v-596zM361 367q-31 45 -85 45q-52 0 -84 -48q-28 -42 -28 -99q0 -56 28 -98q32 -47 84 -47q55 0 86 49
q27 42 27 101q0 58 -28 97z" />
    <glyph glyph-name="r" unicode="r" horiz-adv-x="333" 
d="M39 466q0 72 74 72q70 0 70 -60h2q41 60 101 60q70 0 70 -77q0 -30 -27 -45q-9 -5 -27 -12l-32 -13l-32 -15q-17 -10 -28 -19q-27 -24 -27 -62v-221q0 -80 -72 -80t-72 80v392z" />
    <glyph glyph-name="s" unicode="s" horiz-adv-x="426" 
d="M344 376q-9 0 -25 7l-32 14q-21 10 -36 14q-20 7 -36 7q-49 0 -49 -40q0 -21 39 -40q13 -6 40 -16l46 -18q57 -24 86 -53q39 -38 39 -94q0 -73 -56 -120q-57 -49 -149 -49q-67 0 -131 31q-70 34 -70 80q0 20 16 40q19 24 46 24q19 0 37 -8q8 -3 17 -8q3 -1 8 -4
q1 -1 4 -2q3 -2 4 -2q21 -12 35 -17q21 -8 44 -8q57 0 57 41q0 21 -39 39l-86 34q-57 24 -86 53q-39 39 -39 95q0 75 55 122q54 46 140 46q63 0 117 -25q63 -30 63 -79q0 -64 -59 -64z" />
    <glyph glyph-name="t" unicode="t" horiz-adv-x="370" 
d="M149 695h10q41 0 63 -47q4 -15 4 -33v-86h45q45 0 60 -36q3 -9 3 -19v-12q0 -43 -38 -53q-13 -4 -47 -4h-23v-268q0 -29 37 -29h21q36 0 48 -29q2 -11 2 -18v-4q0 -50 -73 -61l-21 -1h-21q-99 0 -128 68q-10 25 -10 54v288h-1q-68 0 -79 19q-11 15 -11 36v15q0 36 37 49
q15 5 30 5h24v87q0 58 52 77z" />
    <glyph glyph-name="u" unicode="u" horiz-adv-x="556" 
d="M41 458q0 80 72 80t72 -80v-257q0 -43 29 -69q26 -24 64 -24t65 24q28 26 28 69v257q0 80 72 80t72 -80v-260q0 -97 -61 -153q-63 -57 -176 -57t-175 57q-62 56 -62 153v260z" />
    <glyph glyph-name="v" unicode="v" horiz-adv-x="462" 
d="M8 426q-9 23 -9 42q0 70 75 70q27 0 44 -17q13 -13 20 -34l92 -284h2l92 284q7 21 20 34q17 17 44 17q75 0 75 -70q0 -19 -9 -42l-145 -372q-12 -31 -26 -44q-18 -16 -52 -16t-52 16q-14 13 -26 44z" />
    <glyph glyph-name="w" unicode="w" horiz-adv-x="778" 
d="M22 412q-15 44 -15 68q0 58 72 58q55 0 68 -57l83 -275h2l84 269q18 63 73 63t73 -63l84 -269h2l83 275q13 57 68 57q72 0 72 -70q0 -10 -4 -25q-2 -4 -5 -14l-128 -362q-26 -73 -87 -73q-62 0 -83 67l-74 232h-2l-74 -232q-21 -67 -83 -67q-61 0 -87 73z" />
    <glyph glyph-name="x" unicode="x" horiz-adv-x="500" 
d="M166 279l-122 137q-22 26 -22 52q0 28 23 49t51 21q30 0 53 -28l101 -126l101 126q23 28 53 28q28 0 51 -21t23 -49q0 -26 -22 -52l-122 -137l146 -166q20 -22 20 -49q0 -70 -71 -70q-33 0 -60 32l-119 146l-119 -146q-27 -32 -60 -32q-71 0 -71 70q0 27 20 49z" />
    <glyph glyph-name="y" unicode="y" horiz-adv-x="481" 
d="M5 439q-7 19 -7 37q0 26 23 45q21 17 45 17q53 0 72 -51l99 -271l106 271q19 51 72 51q24 0 45 -17q23 -19 23 -45q0 -22 -7 -37l-241 -600q-23 -57 -68 -57q-75 0 -75 62q0 19 9 42l63 156z" />
    <glyph glyph-name="z" unicode="z" horiz-adv-x="481" 
d="M250 406h-167q-65 0 -65 63t65 63h327q6 0 13 -2q9 -2 15 -6q19 -12 19 -37q0 -23 -15 -43l-227 -318h190q65 0 65 -63t-65 -63h-335q-59 0 -59 49q0 11 5 23q1 4 4 9z" />
    <glyph glyph-name="braceleft" unicode="{" horiz-adv-x="333" 
d="M86 171q0 41 -15 56q-10 10 -33 10q-48 0 -48 48t48 48q23 0 33 11q15 14 15 55v194q0 131 133 131h62q45 0 45 -45t-45 -45h-25q-44 0 -44 -58v-189q0 -59 -41 -83q-15 -9 -35 -14q-8 -1 -17 -3l-15 -1v-2l15 -1q9 -2 17 -3q20 -5 35 -13q41 -25 41 -84v-189
q0 -58 44 -58h25q45 0 45 -45t-45 -45h-62q-133 0 -133 131v194z" />
    <glyph glyph-name="bar" unicode="|" horiz-adv-x="222" 
d="M51 750q0 60 60 60t60 -60v-1000q0 -60 -60 -60t-60 60v1000z" />
    <glyph glyph-name="braceright" unicode="}" horiz-adv-x="333" 
d="M247 399q0 -41 15 -55q10 -11 33 -11q48 0 48 -48t-48 -48q-23 0 -33 -10q-15 -15 -15 -56v-194q0 -131 -133 -131h-62q-45 0 -45 45t45 45h25q44 0 44 58v189q0 59 41 84q15 8 35 13q8 1 17 3l15 1v2l-15 1q-9 2 -17 3q-20 5 -35 14q-41 24 -41 83v189q0 58 -44 58h-25
q-45 0 -45 45t45 45h62q133 0 133 -131v-194z" />
    <glyph glyph-name="asciitilde" unicode="~" horiz-adv-x="600" 
d="M440 289q10 6 25 21l6 5q4 3 6 6q6 6 12 9q13 10 27 10q43 0 43 -49q0 -50 -40 -89q-44 -43 -112 -43q-25 0 -57 11q-22 7 -58 23l-27 12q-15 7 -26 11q-27 11 -44 11q-18 0 -35 -10q-10 -6 -25 -20q-1 -2 -3 -3l-3 -3q-4 -3 -6 -6q-6 -6 -12 -9q-13 -10 -27 -10
q-43 0 -43 49q0 50 40 89q44 43 112 43q25 0 57 -11q22 -7 58 -23l27 -12q15 -7 26 -11q27 -11 44 -11q18 0 35 10z" />
    <glyph glyph-name="uni00A0" unicode="&#xa0;" horiz-adv-x="268" 
 />
    <glyph glyph-name="exclamdown" unicode="&#xa1;" horiz-adv-x="334" 
d="M95 261q0 68 72 68t72 -68v-385q0 -68 -72 -68t-72 68v385zM245 466q0 -78 -78 -78t-78 78t78 78t78 -78z" />
    <glyph glyph-name="cent" unicode="&#xa2;" horiz-adv-x="463" 
d="M238 401q-74 -31 -74 -136q0 -101 74 -133v269zM292 120q20 2 58 16l25 10q12 4 17 4q62 0 62 -63q0 -47 -59 -75q-46 -22 -103 -24v-23q0 -47 -27 -47t-27 47v27q-101 14 -161 92q-57 75 -57 185q0 104 60 179q60 77 158 92v28q0 47 27 47t27 -47v-24q55 -1 102 -21
q60 -26 60 -70q0 -26 -15 -47q-16 -24 -40 -24q-17 0 -50 13q-17 7 -27 10q-16 5 -30 6v-291z" />
    <glyph glyph-name="sterling" unicode="&#xa3;" horiz-adv-x="611" 
d="M425 424q72 0 72 -69t-72 -69h-129q0 -78 -51 -148h278q72 0 72 -69t-72 -69h-392q-78 0 -78 78q0 13 14 32q2 4 6 9l8 10q10 13 16 22q19 28 29 56q14 37 14 79h-52q-72 0 -72 69t72 69h21q-26 50 -26 106q0 87 75 142q72 52 177 52q106 0 179 -49q74 -50 74 -124
q0 -76 -78 -76q-22 0 -40 16l-16 17l-15 20q-20 24 -37 36q-26 16 -61 16q-40 0 -67 -20q-29 -21 -29 -57q0 -31 13 -53l15 -26h152z" />
    <glyph glyph-name="currency" unicode="&#xa4;" horiz-adv-x="600" 
d="M158 155l-57 -59q-10 -12 -29 -12q-22 0 -34 16q-12 17 -12 36q0 7 6 14q1 3 4 5l62 62q-46 52 -46 139q0 96 46 141l-66 67q-5 7 -6 14v8l2 9q2 10 10 19q12 16 34 16q19 0 29 -12l57 -57q54 44 142 44t142 -44l57 57q11 12 29 12q22 0 34 -16q12 -17 12 -36
q0 -7 -5 -14q-2 -3 -5 -5l-62 -62q46 -45 46 -141q0 -87 -46 -139l62 -62q3 -2 5 -5q5 -7 5 -14q0 -19 -12 -36q-12 -16 -34 -16q-18 0 -29 12l-57 59q-51 -46 -142 -46t-142 46zM208 452q-36 -38 -36 -96q0 -57 37 -95q36 -38 91 -38t91 38q37 38 37 95q0 58 -36 96
q-37 39 -92 39t-92 -39z" />
    <glyph glyph-name="yen" unicode="&#xa5;" 
d="M212 188h-142q-48 0 -48 42t48 42h142v68h-142q-48 0 -48 42t48 42h81l-127 176q-14 20 -14 45q0 73 72 73q41 0 62 -30l143 -209l143 209q21 30 62 30q72 0 72 -73q0 -25 -14 -45l-127 -176h81q48 0 48 -42t-48 -42h-142v-68h142q48 0 48 -42t-48 -42h-142v-121
q0 -73 -75 -73t-75 73v121z" />
    <glyph glyph-name="brokenbar" unicode="&#xa6;" horiz-adv-x="222" 
d="M51 615q0 60 60 60t60 -60v-230q0 -60 -60 -60t-60 60v230zM51 115q0 60 60 60t60 -60v-230q0 -60 -60 -60t-60 60v230z" />
    <glyph glyph-name="section" unicode="&#xa7;" 
d="M355 717q45 -9 81 -25q41 -19 65 -46q26 -30 26 -70q0 -28 -20 -49q-20 -22 -47 -22q-20 0 -40 14q-8 5 -17 14l-27 24q-4 4 -9 7q-10 9 -20 14q-23 14 -49 14q-74 0 -74 -69q0 -34 52 -57q10 -5 25 -10q3 -2 7 -3l21 -8q37 -14 61 -26q36 -15 61 -28q31 -17 52 -35
q51 -44 51 -107q0 -61 -27 -104q-24 -36 -79 -74q22 -29 31 -49q12 -26 12 -56q0 -84 -64 -136q-60 -48 -147 -48q-90 0 -168 46q-80 47 -80 105q0 75 80 75q18 0 35 -15q6 -5 15 -15l15 -17q19 -22 35 -32q23 -15 50 -15t49 15q24 16 24 42q0 37 -49 63q-18 10 -51 22
l-28 11q-18 6 -29 11q-34 13 -58 26q-30 17 -51 36q-49 47 -49 119q0 100 89 172q-47 52 -47 105q0 87 65 139q61 49 153 49q36 0 75 -7zM347 156q51 30 51 73q0 47 -74 75l-110 43q-44 -33 -44 -71q0 -43 51 -67z" />
    <glyph glyph-name="dieresis" unicode="&#xa8;" horiz-adv-x="222" 
d="M221 747q72 0 72 -72t-72 -72t-72 72t72 72zM1 747q72 0 72 -72t-72 -72t-72 72t72 72z" />
    <glyph glyph-name="copyright" unicode="&#xa9;" horiz-adv-x="800" 
d="M499 403q-5 5 -9 14q-2 3 -4 8l-4 9q-2 4 -4 6l-5 7q-6 7 -14 12q-20 13 -56 13q-91 0 -91 -116t91 -116q36 0 56 13q8 5 14 12l5 7q2 2 4 6l4 9q2 5 4 8q4 9 9 14q13 14 37 14q40 -7 40 -54q0 -38 -47 -76q-54 -43 -126 -43q-91 0 -146 59q-53 57 -53 147t53 147
q55 59 146 59q72 0 126 -43q47 -38 47 -76q0 -47 -40 -54q-24 0 -37 14zM140 616q108 108 260 108t260 -108t108 -260t-108 -260t-260 -108t-260 108t-108 260t108 260zM203 159q82 -81 197 -81q116 0 197 81q81 82 81 197q0 116 -81 197t-197 81q-115 0 -197 -81
q-81 -81 -81 -197q0 -115 81 -197z" />
    <glyph glyph-name="ordfeminine" unicode="&#xaa;" horiz-adv-x="373" 
d="M346 435q0 -44 -44 -44q-41 0 -45 39q-37 -39 -82 -39q-71 0 -117 47q-45 46 -45 119q0 71 45 119t110 48q59 0 89 -39q4 39 45 39q44 0 44 -54v-235zM234 497q16 25 16 60q0 36 -16 60q-19 29 -53 29q-35 0 -55 -29q-17 -25 -17 -60t17 -60q20 -28 55 -28q34 0 53 28z
" />
    <glyph glyph-name="guillemotleft" unicode="&#xab;" horiz-adv-x="500" 
d="M362 478q15 17 43 17q58 0 58 -55q0 -23 -11 -38l-79 -121l79 -119q11 -16 11 -34q0 -63 -60 -63q-33 0 -50 25l-103 159q-9 13 -9 36q0 13 8 30q6 12 16 26zM158 478q15 17 43 17q58 0 58 -55q0 -23 -11 -38l-79 -121l79 -119q11 -16 11 -34q0 -63 -60 -63q-33 0 -50 25
l-103 159q-9 13 -9 36q0 13 8 30q6 12 16 26z" />
    <glyph glyph-name="logicalnot" unicode="&#xac;" horiz-adv-x="600" 
d="M505 425q60 0 60 -60v-227q0 -60 -60 -60t-60 60v167h-350q-60 0 -60 60t60 60h410z" />
    <glyph glyph-name="uni00AD" unicode="&#xad;" horiz-adv-x="389" 
d="M301 353q57 -5 57 -64q0 -57 -57 -62h-213q-57 5 -57 62q0 59 57 64h213z" />
    <glyph glyph-name="registered" unicode="&#xae;" horiz-adv-x="800" 
d="M342 198q0 -48 -45 -48t-45 48v309q0 42 46 42h113q69 0 105 -24q44 -28 44 -93q0 -105 -100 -110l71 -116q6 -12 6 -21q0 -35 -47 -35q-21 0 -35 15q-5 6 -10 15l-73 136h-30v-118zM417 388q53 0 53 44q0 45 -53 45h-75v-89h75zM140 616q108 108 260 108t260 -108
t108 -260t-108 -260t-260 -108t-260 108t-108 260t108 260zM203 159q82 -81 197 -81q116 0 197 81q81 82 81 197q0 116 -81 197t-197 81q-115 0 -197 -81q-81 -81 -81 -197q0 -115 81 -197z" />
    <glyph glyph-name="macron" unicode="&#xaf;" horiz-adv-x="222" 
d="M204 730q65 0 65 -60t-65 -60h-186q-65 0 -65 60t65 60h186z" />
    <glyph glyph-name="degree" unicode="&#xb0;" horiz-adv-x="400" 
d="M142 505q24 -25 58 -25t58 25q25 24 25 58t-25 58q-24 25 -58 25t-58 -25q-25 -24 -25 -58t25 -58zM86 677q47 47 114 47t114 -47t47 -114t-47 -114t-114 -47t-114 47t-47 114t47 114z" />
    <glyph glyph-name="plusminus" unicode="&#xb1;" horiz-adv-x="600" 
d="M240 458q0 60 60 60t60 -60v-64h145q60 0 60 -60t-60 -60h-145v-64q0 -60 -60 -60t-60 60v64h-145q-60 0 -60 60t60 60h145v64zM505 120q60 0 60 -60t-60 -60h-410q-60 0 -60 60t60 60h410z" />
    <glyph glyph-name="uni00B2" unicode="&#xb2;" horiz-adv-x="373" 
d="M300 393q44 0 44 -51t-44 -51h-224q-47 0 -47 39q0 15 15 30q16 18 41 44l42 44q24 25 41 45q21 24 37 47q23 31 23 55q0 39 -46 39q-26 0 -39 -14q-9 -9 -16 -31q-1 -1 -1 -2l-5 -15q-4 -8 -8 -14q-11 -14 -33 -14q-47 0 -47 56q0 40 40 79q46 45 113 45q61 0 102 -33
q42 -35 42 -91q0 -30 -16 -63q-14 -27 -39 -58l-22 -26l-41 -43q-9 -10 -14 -17h102z" />
    <glyph glyph-name="uni00B3" unicode="&#xb3;" horiz-adv-x="373" 
d="M278 695q44 -31 44 -80q0 -59 -55 -92q80 -34 80 -108q0 -63 -53 -99q-46 -31 -112 -31q-55 0 -102 30q-54 33 -54 81q0 40 50 40q14 0 25 -10q4 -3 9 -9l4 -6q3 -4 5 -5q11 -15 22 -21q17 -10 41 -10q63 0 63 46q0 26 -17 38q-13 9 -38 13l-21 4q-11 2 -17 6
q-18 9 -18 32q0 21 14 31q9 6 32 11q23 6 32 12q14 11 14 33q0 33 -44 33q-27 0 -53 -25q-25 -26 -47 -26q-42 0 -42 44q0 40 51 70q46 27 91 27q56 0 96 -29z" />
    <glyph glyph-name="acute" unicode="&#xb4;" horiz-adv-x="222" 
d="M142 763q25 10 38 10q21 0 38 -21q16 -19 16 -41q0 -44 -41 -59l-112 -44q-29 -10 -40 -10q-22 0 -38 23q-15 23 -15 50q0 25 28 40z" />
    <glyph glyph-name="uni00B5" unicode="&#xb5;" horiz-adv-x="556" 
d="M41 458q0 80 72 80t72 -80v-257q0 -43 29 -69q26 -24 64 -24t65 24q28 26 28 69v257q0 80 72 80t72 -80v-384q0 -80 -72 -80t-72 69h-2q-15 -38 -43 -58q-24 -17 -49 -17q-57 0 -90 50h-2v-176q0 -80 -72 -80t-72 80v596z" />
    <glyph glyph-name="paragraph" unicode="&#xb6;" horiz-adv-x="620" 
d="M238 363q-223 0 -223 171q0 100 71 143q31 19 78 27q41 8 97 8h254q60 0 60 -60v-804q0 -60 -60 -60t-60 60v774h-97v-774q0 -60 -60 -60t-60 60v515z" />
    <glyph glyph-name="periodcentered" unicode="&#xb7;" horiz-adv-x="268" 
d="M189 336q23 -23 23 -55q0 -78 -78 -78t-78 78t78 78q32 0 55 -23z" />
    <glyph glyph-name="cedilla" unicode="&#xb8;" horiz-adv-x="222" 
d="M187 0l-39 -51l22 3q75 0 75 -76q0 -45 -37 -71q-32 -23 -74 -23h-12l-14 2q-17 2 -30 7q-34 12 -34 41q0 26 24 26l9 -1l9 -3q3 0 3 -1q17 -4 27 -5q33 -2 33 28q0 28 -34 28q-34 4 -34 23q0 6 9 20q3 6 7 12l30 41h60z" />
    <glyph glyph-name="uni00B9" unicode="&#xb9;" horiz-adv-x="240" 
d="M88 616h-34q-44 0 -44 52q0 50 44 50h93q43 0 43 -42v-347q0 -44 -51 -44t-51 44v287z" />
    <glyph glyph-name="ordmasculine" unicode="&#xba;" horiz-adv-x="361" 
d="M302 674q46 -49 46 -117q0 -69 -46 -117q-48 -49 -121 -49q-74 0 -122 49q-46 48 -46 117q0 68 47 117q49 50 121 50t121 -50zM234 498q18 25 18 59q0 35 -16 60q-20 29 -55 29t-55 -29q-17 -25 -17 -60q0 -34 18 -59q20 -29 54 -29q33 0 53 29z" />
    <glyph glyph-name="guillemotright" unicode="&#xbb;" horiz-adv-x="500" 
d="M331 281l-79 117q-11 16 -11 34q0 63 60 63q33 0 50 -25l103 -159q9 -13 9 -36q0 -13 -8 -30q-6 -12 -16 -26l-97 -137q-15 -17 -43 -17q-58 0 -58 55q0 23 11 38zM127 281l-79 117q-11 16 -11 34q0 63 60 63q33 0 50 -25l103 -159q9 -13 9 -36q0 -13 -8 -30
q-6 -12 -16 -26l-97 -137q-15 -17 -43 -17q-58 0 -58 55q0 23 11 38z" />
    <glyph glyph-name="onequarter" unicode="&#xbc;" horiz-adv-x="861" 
d="M620 398q22 35 71 35q79 0 79 -77v-177h10q45 0 45 -47q0 -49 -45 -49h-10v-45q0 -44 -51 -44t-51 44v45h-163q-39 0 -39 41q0 14 9 30zM668 332h-2l-84 -153h86v153zM493 698q17 32 46 32q59 0 59 -56q0 -15 -8 -30l-336 -629q-24 -33 -45 -33q-20 0 -38 16
q-19 17 -19 39q0 10 4 21l6 16zM114 616h-34q-44 0 -44 52q0 50 44 50h93q43 0 43 -42v-347q0 -44 -51 -44t-51 44v287z" />
    <glyph glyph-name="onehalf" unicode="&#xbd;" horiz-adv-x="861" 
d="M493 698q17 32 46 32q59 0 59 -56q0 -15 -8 -30l-336 -629q-24 -33 -45 -33q-20 0 -38 16q-19 17 -19 39q0 10 4 21l6 16zM557 0q-47 0 -47 40q0 15 15 30q16 18 41 44l42 44q24 25 41 45q21 24 37 47q23 31 23 55q0 38 -46 38q-26 0 -39 -14q-9 -9 -16 -30q-1 -1 -1 -3
l-5 -14q-4 -9 -8 -14q-11 -14 -33 -14q-47 0 -47 56q0 39 40 78q46 45 113 45q62 0 102 -33q42 -34 42 -90q0 -30 -16 -63q-14 -27 -39 -58q-9 -12 -22 -26l-41 -44q-9 -10 -14 -17h99q47 0 47 -53q0 -49 -41 -49h-227zM114 616h-34q-44 0 -44 52q0 50 44 50h93q43 0 43 -42
v-347q0 -44 -51 -44t-51 44v287z" />
    <glyph glyph-name="threequarters" unicode="&#xbe;" horiz-adv-x="861" 
d="M633 398q22 35 71 35q79 0 79 -77v-177h10q45 0 45 -47q0 -49 -45 -49h-10v-45q0 -44 -51 -44t-51 44v45h-163q-39 0 -39 41q0 14 9 30zM681 332h-2l-84 -153h86v153zM569 698q17 32 46 32q59 0 59 -56q0 -15 -8 -30l-336 -629q-24 -33 -45 -33q-20 0 -38 16
q-19 17 -19 39q0 10 4 21l6 16zM275 695q44 -31 44 -80q0 -59 -55 -92q80 -34 80 -108q0 -63 -53 -99q-46 -31 -112 -31q-55 0 -102 30q-54 33 -54 81q0 40 50 40q14 0 25 -10q4 -3 9 -9l4 -6q3 -4 5 -5q11 -15 22 -21q17 -10 41 -10q63 0 63 46q0 26 -17 38q-13 9 -38 13
l-21 4q-11 2 -17 6q-18 9 -18 32q0 21 14 31q9 6 32 11q23 6 32 12q14 11 14 33q0 33 -44 33q-27 0 -53 -25q-25 -26 -47 -26q-42 0 -42 44q0 40 51 70q46 27 91 27q56 0 96 -29z" />
    <glyph glyph-name="questiondown" unicode="&#xbf;" horiz-adv-x="481" 
d="M334 160q0 -24 -25 -36q-10 -5 -26 -9q-5 -2 -15 -4l-15 -4q-38 -10 -55 -25q-25 -21 -25 -60q0 -32 26 -54q24 -22 57 -22q28 0 52 15q15 11 36 35l16 18q9 10 17 16q19 15 40 15q61 0 61 -72q0 -73 -77 -122q-68 -43 -145 -43q-101 0 -168 57q-71 60 -71 157
q0 80 48 133q44 49 125 69v36q0 69 72 69t72 -69v-100zM340 466q0 -78 -78 -78t-78 78t78 78t78 -78z" />
    <glyph glyph-name="Agrave" unicode="&#xc0;" horiz-adv-x="630" 
d="M210 641q31 83 107 83q78 0 107 -83l196 -544q4 -11 6 -22q2 -9 2 -15q0 -66 -69 -66q-56 0 -73 52l-30 94h-278l-30 -93q-17 -53 -72 -53q-74 0 -74 70q0 10 3 21zM221 278h190l-93 290h-2zM410 873q28 -15 28 -40q0 -27 -15 -50q-16 -23 -38 -23q-11 0 -40 10l-112 44
q-41 15 -41 59q0 22 16 41q17 21 38 21q13 0 38 -10z" />
    <glyph glyph-name="Aacute" unicode="&#xc1;" horiz-adv-x="630" 
d="M210 641q31 83 107 83q78 0 107 -83l196 -544q4 -11 6 -22q2 -9 2 -15q0 -66 -69 -66q-56 0 -73 52l-30 94h-278l-30 -93q-17 -53 -72 -53q-74 0 -74 70q0 10 3 21zM221 278h190l-93 290h-2zM346 925q25 10 38 10q21 0 38 -21q16 -19 16 -41q0 -44 -41 -59l-112 -44
q-29 -10 -40 -10q-22 0 -38 23q-15 23 -15 50q0 25 28 40z" />
    <glyph glyph-name="Acircumflex" unicode="&#xc2;" horiz-adv-x="630" 
d="M210 641q31 83 107 83q78 0 107 -83l196 -544q4 -11 6 -22q2 -9 2 -15q0 -66 -69 -66q-56 0 -73 52l-30 94h-278l-30 -93q-17 -53 -72 -53q-74 0 -74 70q0 10 3 21zM221 278h190l-93 290h-2zM315 926l106 -43q46 -19 46 -61q0 -24 -18 -44q-19 -20 -43 -20q-8 0 -23 6
l-68 29l-68 -29q-15 -6 -23 -6q-24 0 -42 20q-19 20 -19 44q0 44 46 61z" />
    <glyph glyph-name="Atilde" unicode="&#xc3;" horiz-adv-x="630" 
d="M210 641q31 83 107 83q78 0 107 -83l196 -544q4 -11 6 -22q2 -9 2 -15q0 -66 -69 -66q-56 0 -73 52l-30 94h-278l-30 -93q-17 -53 -72 -53q-74 0 -74 70q0 10 3 21zM221 278h190l-93 290h-2zM149 819q0 88 95 88q26 0 64 -12q1 -1 4 -1l10 -4q8 -3 13 -4q13 -4 21 -4
q7 0 17 5q4 1 9 4l21 11q5 3 10 4q12 5 21 5q47 0 47 -56q0 -36 -31 -62q-30 -25 -67 -25q-18 0 -60 13l-16 4q-8 3 -14 4q-15 4 -23 4t-17 -4l-23 -14l-9 -4q-11 -4 -22 -4q-50 0 -50 52z" />
    <glyph glyph-name="Adieresis" unicode="&#xc4;" horiz-adv-x="630" 
d="M210 641q31 83 107 83q78 0 107 -83l196 -544q4 -11 6 -22q2 -9 2 -15q0 -66 -69 -66q-56 0 -73 52l-30 94h-278l-30 -93q-17 -53 -72 -53q-74 0 -74 70q0 10 3 21zM221 278h190l-93 290h-2zM425 909q72 0 72 -72t-72 -72t-72 72t72 72zM205 909q72 0 72 -72t-72 -72
t-72 72t72 72z" />
    <glyph glyph-name="Aring" unicode="&#xc5;" horiz-adv-x="630" 
d="M210 641q31 83 107 83q78 0 107 -83l196 -544q4 -11 6 -22q2 -9 2 -15q0 -66 -69 -66q-56 0 -73 52l-30 94h-278l-30 -93q-17 -53 -72 -53q-74 0 -74 70q0 10 3 21zM221 278h190l-93 290h-2zM245 910q29 29 70 29t70 -29t29 -70t-29 -70t-70 -29t-70 29t-29 70t29 70z
M315 795q45 0 45 45t-45 45t-45 -45t45 -45z" />
    <glyph glyph-name="AE" unicode="&#xc6;" horiz-adv-x="833" 
d="M320 678q8 15 20 23q17 11 50 11h351q71 0 71 -69t-71 -69h-176v-146h164q73 0 73 -69t-73 -69h-164v-152h185q71 0 71 -69t-71 -69h-258q-77 0 -77 75v50h-229l-47 -82q-28 -49 -71 -49q-72 0 -72 63q0 22 14 48zM255 260h160v290h-2z" />
    <glyph glyph-name="Ccedilla" unicode="&#xc7;" horiz-adv-x="611" 
d="M343 -51q4 0 11 2l11 1q75 0 75 -76q0 -45 -37 -71q-32 -23 -74 -23h-12l-14 2q-17 2 -30 7q-34 12 -34 41q0 26 24 26l9 -1l9 -3q3 0 3 -1q17 -4 27 -5q33 -2 33 28q0 28 -34 28q-34 4 -34 23q0 6 9 20q3 6 7 12l23 32q-133 16 -216 119q-82 102 -82 246q0 158 96 262
q97 106 248 106q31 0 64 -5q40 -6 71 -18q80 -31 80 -89q0 -67 -62 -67q-13 0 -29 5l-23 9q-5 2 -8 4q-21 8 -39 12q-26 5 -54 5q-89 0 -140 -68q-48 -62 -48 -159q0 -94 48 -155q51 -66 140 -66q28 0 55 7q18 4 41 14q3 2 8 4q2 0 5 2l20 8q17 7 30 7q30 0 50 -25
q16 -21 16 -43q0 -61 -78 -93q-31 -12 -70 -18q-33 -6 -65 -6z" />
    <glyph glyph-name="Egrave" unicode="&#xc8;" horiz-adv-x="463" 
d="M45 625q0 87 78 87h248q71 0 71 -69t-71 -69h-176v-146h164q73 0 73 -69t-73 -69h-164v-152h185q71 0 71 -69t-71 -69h-258q-77 0 -77 75v550zM327 873q28 -15 28 -40q0 -27 -15 -50q-16 -23 -38 -23q-11 0 -40 10l-112 44q-41 15 -41 59q0 22 16 41q17 21 38 21
q13 0 38 -10z" />
    <glyph glyph-name="Eacute" unicode="&#xc9;" horiz-adv-x="463" 
d="M45 625q0 87 78 87h248q71 0 71 -69t-71 -69h-176v-146h164q73 0 73 -69t-73 -69h-164v-152h185q71 0 71 -69t-71 -69h-258q-77 0 -77 75v550zM263 925q25 10 38 10q21 0 38 -21q16 -19 16 -41q0 -44 -41 -59l-112 -44q-29 -10 -40 -10q-22 0 -38 23q-15 23 -15 50
q0 25 28 40z" />
    <glyph glyph-name="Ecircumflex" unicode="&#xca;" horiz-adv-x="463" 
d="M45 625q0 87 78 87h248q71 0 71 -69t-71 -69h-176v-146h164q73 0 73 -69t-73 -69h-164v-152h185q71 0 71 -69t-71 -69h-258q-77 0 -77 75v550zM232 926l106 -43q46 -19 46 -61q0 -24 -18 -44q-19 -20 -43 -20q-8 0 -23 6l-68 29l-68 -29q-15 -6 -23 -6q-24 0 -42 20
q-19 20 -19 44q0 44 46 61z" />
    <glyph glyph-name="Edieresis" unicode="&#xcb;" horiz-adv-x="463" 
d="M45 625q0 87 78 87h248q71 0 71 -69t-71 -69h-176v-146h164q73 0 73 -69t-73 -69h-164v-152h185q71 0 71 -69t-71 -69h-258q-77 0 -77 75v550zM342 909q72 0 72 -72t-72 -72t-72 72t72 72zM122 909q72 0 72 -72t-72 -72t-72 72t72 72z" />
    <glyph glyph-name="Igrave" unicode="&#xcc;" horiz-adv-x="240" 
d="M45 640q0 78 75 78t75 -78v-568q0 -78 -75 -78t-75 78v568zM215 873q28 -15 28 -40q0 -27 -15 -50q-16 -23 -38 -23q-11 0 -40 10l-112 44q-41 15 -41 59q0 22 16 41q17 21 38 21q13 0 38 -10z" />
    <glyph glyph-name="Iacute" unicode="&#xcd;" horiz-adv-x="240" 
d="M45 640q0 78 75 78t75 -78v-568q0 -78 -75 -78t-75 78v568zM151 925q25 10 38 10q21 0 38 -21q16 -19 16 -41q0 -44 -41 -59l-112 -44q-29 -10 -40 -10q-22 0 -38 23q-15 23 -15 50q0 25 28 40z" />
    <glyph glyph-name="Icircumflex" unicode="&#xce;" horiz-adv-x="240" 
d="M45 640q0 78 75 78t75 -78v-568q0 -78 -75 -78t-75 78v568zM120 926l106 -43q46 -19 46 -61q0 -24 -18 -44q-19 -20 -43 -20q-8 0 -23 6l-68 29l-68 -29q-15 -6 -23 -6q-24 0 -42 20q-19 20 -19 44q0 44 46 61z" />
    <glyph glyph-name="Idieresis" unicode="&#xcf;" horiz-adv-x="240" 
d="M45 640q0 78 75 78t75 -78v-568q0 -78 -75 -78t-75 78v568zM230 909q72 0 72 -72t-72 -72t-72 72t72 72zM10 909q72 0 72 -72t-72 -72t-72 72t72 72z" />
    <glyph glyph-name="Eth" unicode="&#xd0;" horiz-adv-x="667" 
d="M45 304h-27q-63 0 -63 57t63 57h27v217q0 77 77 77h166q166 0 260 -100q92 -97 92 -266q0 -157 -94 -252q-93 -94 -248 -94h-174q-30 0 -52 16q-27 20 -27 59v229zM195 418h82q63 0 63 -57t-63 -57h-82v-166h101q93 0 142 63q46 57 46 152q0 101 -47 159q-52 62 -151 62
h-91v-156z" />
    <glyph glyph-name="Ntilde" unicode="&#xd1;" horiz-adv-x="685" 
d="M39 640q0 78 75 78q39 0 63 -33l317 -423h2v378q0 78 75 78t75 -78v-568q0 -78 -75 -78q-37 0 -63 33l-317 418h-2v-373q0 -78 -75 -78t-75 78v568zM177 819q0 88 95 88q26 0 64 -12q1 -1 4 -1l10 -4q8 -3 13 -4q13 -4 21 -4q7 0 17 5q4 1 9 4l21 11q5 3 10 4q12 5 21 5
q47 0 47 -56q0 -36 -31 -62q-30 -25 -67 -25q-18 0 -60 13l-16 4q-8 3 -14 4q-15 4 -23 4t-17 -4l-23 -14l-9 -4q-11 -4 -22 -4q-50 0 -50 52z" />
    <glyph glyph-name="Ograve" unicode="&#xd2;" horiz-adv-x="722" 
d="M503 195q46 63 46 161q0 97 -47 160q-52 70 -141 70t-141 -70q-47 -63 -47 -160q0 -98 46 -161q51 -69 142 -69t142 69zM113 94q-96 105 -96 262q0 158 96 262q97 106 248 106q149 0 247 -108q97 -106 97 -260q0 -157 -95 -262q-97 -106 -249 -106q-151 0 -248 106z
M456 873q28 -15 28 -40q0 -27 -15 -50q-16 -23 -38 -23q-11 0 -40 10l-112 44q-41 15 -41 59q0 22 16 41q17 21 38 21q13 0 38 -10z" />
    <glyph glyph-name="Oacute" unicode="&#xd3;" horiz-adv-x="722" 
d="M503 195q46 63 46 161q0 97 -47 160q-52 70 -141 70t-141 -70q-47 -63 -47 -160q0 -98 46 -161q51 -69 142 -69t142 69zM113 94q-96 105 -96 262q0 158 96 262q97 106 248 106q149 0 247 -108q97 -106 97 -260q0 -157 -95 -262q-97 -106 -249 -106q-151 0 -248 106z
M392 925q25 10 38 10q21 0 38 -21q16 -19 16 -41q0 -44 -41 -59l-112 -44q-29 -10 -40 -10q-22 0 -38 23q-15 23 -15 50q0 25 28 40z" />
    <glyph glyph-name="Ocircumflex" unicode="&#xd4;" horiz-adv-x="722" 
d="M503 195q46 63 46 161q0 97 -47 160q-52 70 -141 70t-141 -70q-47 -63 -47 -160q0 -98 46 -161q51 -69 142 -69t142 69zM113 94q-96 105 -96 262q0 158 96 262q97 106 248 106q149 0 247 -108q97 -106 97 -260q0 -157 -95 -262q-97 -106 -249 -106q-151 0 -248 106z
M361 926l106 -43q46 -19 46 -61q0 -24 -18 -44q-19 -20 -43 -20q-8 0 -23 6l-68 29l-68 -29q-15 -6 -23 -6q-24 0 -42 20q-19 20 -19 44q0 44 46 61z" />
    <glyph glyph-name="Otilde" unicode="&#xd5;" horiz-adv-x="722" 
d="M503 195q46 63 46 161q0 97 -47 160q-52 70 -141 70t-141 -70q-47 -63 -47 -160q0 -98 46 -161q51 -69 142 -69t142 69zM113 94q-96 105 -96 262q0 158 96 262q97 106 248 106q149 0 247 -108q97 -106 97 -260q0 -157 -95 -262q-97 -106 -249 -106q-151 0 -248 106z
M195 819q0 88 95 88q26 0 64 -12q1 -1 4 -1l10 -4q8 -3 13 -4q13 -4 21 -4q7 0 17 5q4 1 9 4l21 11q5 3 10 4q12 5 21 5q47 0 47 -56q0 -36 -31 -62q-30 -25 -67 -25q-18 0 -60 13l-16 4q-8 3 -14 4q-15 4 -23 4t-17 -4l-23 -14l-9 -4q-11 -4 -22 -4q-50 0 -50 52z" />
    <glyph glyph-name="Odieresis" unicode="&#xd6;" horiz-adv-x="722" 
d="M503 195q46 63 46 161q0 97 -47 160q-52 70 -141 70t-141 -70q-47 -63 -47 -160q0 -98 46 -161q51 -69 142 -69t142 69zM113 94q-96 105 -96 262q0 158 96 262q97 106 248 106q149 0 247 -108q97 -106 97 -260q0 -157 -95 -262q-97 -106 -249 -106q-151 0 -248 106z
M471 909q72 0 72 -72t-72 -72t-72 72t72 72zM251 909q72 0 72 -72t-72 -72t-72 72t72 72z" />
    <glyph glyph-name="multiply" unicode="&#xd7;" horiz-adv-x="600" 
d="M300 335l124 124q19 19 41 19t41 -19q19 -17 19 -44q0 -19 -19 -38l-124 -124l124 -124q19 -19 19 -41t-19 -41q-17 -19 -44 -19q-19 0 -38 19l-124 124l-124 -124q-19 -19 -38 -19q-27 0 -44 19q-19 19 -19 41t19 41l124 124l-124 124q-19 19 -19 38q0 27 19 44
q19 19 41 19t41 -19z" />
    <glyph glyph-name="Oslash" unicode="&#xd8;" horiz-adv-x="722" 
d="M244 169q43 -43 117 -43q91 0 142 69q46 63 46 161q0 67 -22 114zM84 129q-67 97 -67 227q0 158 96 262q97 106 248 106q131 0 216 -76l58 59q6 7 12 11q16 12 34 12q41 0 41 -35v-7l-2 -9q-2 -10 -8 -17l-76 -78q69 -101 69 -228q0 -157 -95 -262q-97 -106 -249 -106
q-131 0 -218 76l-62 -63q-17 -19 -39 -19q-42 0 -42 45q0 15 14 31zM477 544q-45 42 -116 42q-89 0 -141 -70q-47 -63 -47 -160q0 -66 21 -112z" />
    <glyph glyph-name="Ugrave" unicode="&#xd9;" horiz-adv-x="685" 
d="M39 640q0 78 75 78t75 -78v-349q0 -71 41 -117q43 -48 113 -48q67 0 111 50q42 47 42 115v349q0 78 75 78t75 -78v-357q0 -125 -90 -210q-88 -85 -213 -85q-127 0 -215 84q-89 85 -89 211v357zM438 873q28 -15 28 -40q0 -27 -15 -50q-16 -23 -38 -23q-11 0 -40 10
l-112 44q-41 15 -41 59q0 22 16 41q17 21 38 21q13 0 38 -10z" />
    <glyph glyph-name="Uacute" unicode="&#xda;" horiz-adv-x="685" 
d="M39 640q0 78 75 78t75 -78v-349q0 -71 41 -117q43 -48 113 -48q67 0 111 50q42 47 42 115v349q0 78 75 78t75 -78v-357q0 -125 -90 -210q-88 -85 -213 -85q-127 0 -215 84q-89 85 -89 211v357zM374 925q25 10 38 10q21 0 38 -21q16 -19 16 -41q0 -44 -41 -59l-112 -44
q-29 -10 -40 -10q-22 0 -38 23q-15 23 -15 50q0 25 28 40z" />
    <glyph glyph-name="Ucircumflex" unicode="&#xdb;" horiz-adv-x="685" 
d="M39 640q0 78 75 78t75 -78v-349q0 -71 41 -117q43 -48 113 -48q67 0 111 50q42 47 42 115v349q0 78 75 78t75 -78v-357q0 -125 -90 -210q-88 -85 -213 -85q-127 0 -215 84q-89 85 -89 211v357zM343 926l106 -43q46 -19 46 -61q0 -24 -18 -44q-19 -20 -43 -20q-8 0 -23 6
l-68 29l-68 -29q-15 -6 -23 -6q-24 0 -42 20q-19 20 -19 44q0 44 46 61z" />
    <glyph glyph-name="Udieresis" unicode="&#xdc;" horiz-adv-x="685" 
d="M39 640q0 78 75 78t75 -78v-349q0 -71 41 -117q43 -48 113 -48q67 0 111 50q42 47 42 115v349q0 78 75 78t75 -78v-357q0 -125 -90 -210q-88 -85 -213 -85q-127 0 -215 84q-89 85 -89 211v357zM453 909q72 0 72 -72t-72 -72t-72 72t72 72zM233 909q72 0 72 -72t-72 -72
t-72 72t72 72z" />
    <glyph glyph-name="Yacute" unicode="&#xdd;" horiz-adv-x="536" 
d="M193 334l-189 266q-14 20 -14 45q0 73 72 73q41 0 62 -30l144 -209l144 209q21 30 62 30q72 0 72 -73q0 -25 -14 -45l-189 -266v-267q0 -73 -75 -73t-75 73v267zM299 925q25 10 38 10q21 0 38 -21q16 -19 16 -41q0 -44 -41 -59l-112 -44q-29 -10 -40 -10q-22 0 -38 23
q-15 23 -15 50q0 25 28 40z" />
    <glyph glyph-name="Thorn" unicode="&#xde;" horiz-adv-x="556" 
d="M195 268h102q103 0 103 106t-103 106h-102v-212zM45 640q0 78 75 78t75 -78v-28h105q111 0 183 -66q73 -67 73 -173q0 -107 -74 -173q-70 -64 -176 -64h-111v-64q0 -78 -75 -78t-75 78v568z" />
    <glyph glyph-name="germandbls" unicode="&#xdf;" horiz-adv-x="556" 
d="M39 516q0 111 59 180q63 74 172 74q92 0 153 -57q63 -58 63 -149q0 -43 -16 -79q-18 -41 -52 -62q61 -18 94 -76q30 -52 30 -120q0 -89 -59 -161q-65 -78 -160 -78q-87 0 -87 72q0 32 26 48q10 5 26 10l26 6q2 1 4 1q80 17 80 102q0 56 -26 83q-18 19 -58 29l-8 2
q-1 1 -4 1l-4 1q-9 3 -15 4q-17 5 -27 11q-26 16 -26 53q0 31 18 47q8 5 19 10l33 13q6 2 11 5q11 7 19 15q18 21 18 63q0 29 -21 51q-23 23 -57 23q-52 0 -72 -38q-15 -28 -15 -84v-442q0 -80 -72 -80t-72 80v442z" />
    <glyph glyph-name="agrave" unicode="&#xe0;" 
d="M533 88q0 -20 -1 -30q-2 -18 -8 -31q-15 -33 -60 -33q-53 0 -69 61q-56 -67 -137 -67q-102 0 -170 78t-68 199q0 118 70 199q69 80 168 80q90 0 137 -66q7 60 69 60q45 0 60 -33q6 -13 8 -31q1 -10 1 -30v-356zM192 167q31 -47 86 -47q53 0 84 47q27 41 27 98
q0 58 -27 99q-31 48 -84 48q-55 0 -87 -48q-27 -41 -27 -99q0 -57 28 -98zM382 711q28 -15 28 -40q0 -27 -15 -50q-16 -23 -38 -23q-11 0 -40 10l-112 44q-41 15 -41 59q0 22 16 41q17 21 38 21q13 0 38 -10z" />
    <glyph glyph-name="aacute" unicode="&#xe1;" 
d="M533 88q0 -20 -1 -30q-2 -18 -8 -31q-15 -33 -60 -33q-53 0 -69 61q-56 -67 -137 -67q-102 0 -170 78t-68 199q0 118 70 199q69 80 168 80q90 0 137 -66q7 60 69 60q45 0 60 -33q6 -13 8 -31q1 -10 1 -30v-356zM192 167q31 -47 86 -47q53 0 84 47q27 41 27 98
q0 58 -27 99q-31 48 -84 48q-55 0 -87 -48q-27 -41 -27 -99q0 -57 28 -98zM318 763q25 10 38 10q21 0 38 -21q16 -19 16 -41q0 -44 -41 -59l-112 -44q-29 -10 -40 -10q-22 0 -38 23q-15 23 -15 50q0 25 28 40z" />
    <glyph glyph-name="acircumflex" unicode="&#xe2;" 
d="M533 88q0 -20 -1 -30q-2 -18 -8 -31q-15 -33 -60 -33q-53 0 -69 61q-56 -67 -137 -67q-102 0 -170 78t-68 199q0 118 70 199q69 80 168 80q90 0 137 -66q7 60 69 60q45 0 60 -33q6 -13 8 -31q1 -10 1 -30v-356zM192 167q31 -47 86 -47q53 0 84 47q27 41 27 98
q0 58 -27 99q-31 48 -84 48q-55 0 -87 -48q-27 -41 -27 -99q0 -57 28 -98zM287 764l106 -43q46 -19 46 -61q0 -24 -18 -44q-19 -20 -43 -20q-8 0 -23 6l-68 29l-68 -29q-15 -6 -23 -6q-24 0 -42 20q-19 20 -19 44q0 44 46 61z" />
    <glyph glyph-name="atilde" unicode="&#xe3;" 
d="M533 88q0 -20 -1 -30q-2 -18 -8 -31q-15 -33 -60 -33q-53 0 -69 61q-56 -67 -137 -67q-102 0 -170 78t-68 199q0 118 70 199q69 80 168 80q90 0 137 -66q7 60 69 60q45 0 60 -33q6 -13 8 -31q1 -10 1 -30v-356zM192 167q31 -47 86 -47q53 0 84 47q27 41 27 98
q0 58 -27 99q-31 48 -84 48q-55 0 -87 -48q-27 -41 -27 -99q0 -57 28 -98zM121 657q0 88 95 88q26 0 64 -12q1 -1 4 -1l10 -4q8 -3 13 -4q13 -4 21 -4q7 0 17 5q4 1 9 4l21 11q5 3 10 4q12 5 21 5q47 0 47 -56q0 -36 -31 -62q-30 -25 -67 -25q-18 0 -60 13l-16 4q-8 3 -14 4
q-15 4 -23 4t-17 -4l-23 -14l-9 -4q-11 -4 -22 -4q-50 0 -50 52z" />
    <glyph glyph-name="adieresis" unicode="&#xe4;" 
d="M533 88q0 -20 -1 -30q-2 -18 -8 -31q-15 -33 -60 -33q-53 0 -69 61q-56 -67 -137 -67q-102 0 -170 78t-68 199q0 118 70 199q69 80 168 80q90 0 137 -66q7 60 69 60q45 0 60 -33q6 -13 8 -31q1 -10 1 -30v-356zM192 167q31 -47 86 -47q53 0 84 47q27 41 27 98
q0 58 -27 99q-31 48 -84 48q-55 0 -87 -48q-27 -41 -27 -99q0 -57 28 -98zM397 747q72 0 72 -72t-72 -72t-72 72t72 72zM177 747q72 0 72 -72t-72 -72t-72 72t72 72z" />
    <glyph glyph-name="aring" unicode="&#xe5;" 
d="M533 88q0 -20 -1 -30q-2 -18 -8 -31q-15 -33 -60 -33q-53 0 -69 61q-56 -67 -137 -67q-102 0 -170 78t-68 199q0 118 70 199q69 80 168 80q90 0 137 -66q7 60 69 60q45 0 60 -33q6 -13 8 -31q1 -10 1 -30v-356zM192 167q31 -47 86 -47q53 0 84 47q27 41 27 98
q0 58 -27 99q-31 48 -84 48q-55 0 -87 -48q-27 -41 -27 -99q0 -57 28 -98zM217 748q29 29 70 29t70 -29t29 -70t-29 -70t-70 -29t-70 29t-29 70t29 70zM287 633q45 0 45 45t-45 45t-45 -45t45 -45z" />
    <glyph glyph-name="ae" unicode="&#xe6;" horiz-adv-x="907" 
d="M192 167q31 -47 86 -47q53 0 84 47q27 41 27 98q0 58 -27 99q-31 48 -84 48q-55 0 -87 -48q-27 -41 -27 -99q0 -57 28 -98zM527 218q7 -51 47 -79q37 -25 90 -25q25 0 51 9q18 7 43 20l19 11q11 6 18 9q19 9 31 9q59 0 59 -62q0 -45 -77 -84q-76 -38 -158 -38
q-84 0 -140 42q-13 -36 -54 -36q-61 0 -61 61h-2q-53 -67 -135 -67q-102 0 -170 78t-68 199q0 118 70 199q69 80 168 80q90 0 139 -66h2q0 60 57 60q44 0 54 -40q49 46 126 46q104 0 183 -78q78 -79 78 -184q0 -64 -63 -64h-307zM753 314q-14 110 -114 110q-101 0 -114 -110
h228z" />
    <glyph glyph-name="ccedilla" unicode="&#xe7;" horiz-adv-x="463" 
d="M269 -51q4 0 11 2l11 1q75 0 75 -76q0 -45 -37 -71q-32 -23 -74 -23h-12l-14 2q-17 2 -30 7q-34 12 -34 41q0 26 24 26l9 -1l9 -3q3 0 3 -1q17 -4 27 -5q33 -2 33 28q0 28 -34 28q-34 4 -34 23q0 6 9 20q3 6 7 12l23 32q-99 14 -161 93q-60 76 -60 181q0 113 72 194
q75 85 186 85q24 0 52 -4q32 -6 57 -15q67 -26 67 -72q0 -25 -15 -46q-16 -23 -40 -23q-17 0 -53 14q-37 14 -61 14q-58 0 -91 -46q-30 -41 -30 -101q0 -57 31 -99q35 -46 90 -46q20 0 61 15l14 6q8 3 13 4q14 5 19 5q62 0 62 -63q0 -44 -56 -72q-43 -21 -98 -25z" />
    <glyph glyph-name="egrave" unicode="&#xe8;" horiz-adv-x="537" 
d="M157 218q7 -51 47 -79q36 -25 89 -25q25 0 51 9q19 7 44 20l19 11q11 6 18 9q19 9 31 9q59 0 59 -62q0 -45 -77 -84q-76 -38 -158 -38q-120 0 -196 79q-74 77 -74 198q0 113 72 194q75 85 186 85t188 -86q71 -79 71 -176q0 -64 -63 -64h-307zM383 314q-14 110 -115 110
t-114 -110h229zM364 711q28 -15 28 -40q0 -27 -15 -50q-16 -23 -38 -23q-11 0 -40 10l-112 44q-41 15 -41 59q0 22 16 41q17 21 38 21q13 0 38 -10z" />
    <glyph glyph-name="eacute" unicode="&#xe9;" horiz-adv-x="537" 
d="M157 218q7 -51 47 -79q36 -25 89 -25q25 0 51 9q19 7 44 20l19 11q11 6 18 9q19 9 31 9q59 0 59 -62q0 -45 -77 -84q-76 -38 -158 -38q-120 0 -196 79q-74 77 -74 198q0 113 72 194q75 85 186 85t188 -86q71 -79 71 -176q0 -64 -63 -64h-307zM383 314q-14 110 -115 110
t-114 -110h229zM300 763q25 10 38 10q21 0 38 -21q16 -19 16 -41q0 -44 -41 -59l-112 -44q-29 -10 -40 -10q-22 0 -38 23q-15 23 -15 50q0 25 28 40z" />
    <glyph glyph-name="ecircumflex" unicode="&#xea;" horiz-adv-x="537" 
d="M157 218q7 -51 47 -79q36 -25 89 -25q25 0 51 9q19 7 44 20l19 11q11 6 18 9q19 9 31 9q59 0 59 -62q0 -45 -77 -84q-76 -38 -158 -38q-120 0 -196 79q-74 77 -74 198q0 113 72 194q75 85 186 85t188 -86q71 -79 71 -176q0 -64 -63 -64h-307zM383 314q-14 110 -115 110
t-114 -110h229zM269 764l106 -43q46 -19 46 -61q0 -24 -18 -44q-19 -20 -43 -20q-8 0 -23 6l-68 29l-68 -29q-15 -6 -23 -6q-24 0 -42 20q-19 20 -19 44q0 44 46 61z" />
    <glyph glyph-name="edieresis" unicode="&#xeb;" horiz-adv-x="537" 
d="M157 218q7 -51 47 -79q36 -25 89 -25q25 0 51 9q19 7 44 20l19 11q11 6 18 9q19 9 31 9q59 0 59 -62q0 -45 -77 -84q-76 -38 -158 -38q-120 0 -196 79q-74 77 -74 198q0 113 72 194q75 85 186 85t188 -86q71 -79 71 -176q0 -64 -63 -64h-307zM383 314q-14 110 -115 110
t-114 -110h229zM379 747q72 0 72 -72t-72 -72t-72 72t72 72zM159 747q72 0 72 -72t-72 -72t-72 72t72 72z" />
    <glyph glyph-name="igrave" unicode="&#xec;" horiz-adv-x="222" 
d="M39 458q0 80 72 80t72 -80v-384q0 -80 -72 -80t-72 80v384zM206 711q28 -15 28 -40q0 -27 -15 -50q-16 -23 -38 -23q-11 0 -40 10l-112 44q-41 15 -41 59q0 22 16 41q17 21 38 21q13 0 38 -10z" />
    <glyph glyph-name="iacute" unicode="&#xed;" horiz-adv-x="222" 
d="M39 458q0 80 72 80t72 -80v-384q0 -80 -72 -80t-72 80v384zM142 763q25 10 38 10q21 0 38 -21q16 -19 16 -41q0 -44 -41 -59l-112 -44q-29 -10 -40 -10q-22 0 -38 23q-15 23 -15 50q0 25 28 40z" />
    <glyph glyph-name="icircumflex" unicode="&#xee;" horiz-adv-x="222" 
d="M39 458q0 80 72 80t72 -80v-384q0 -80 -72 -80t-72 80v384zM111 764l106 -43q46 -19 46 -61q0 -24 -18 -44q-19 -20 -43 -20q-8 0 -23 6l-68 29l-68 -29q-15 -6 -23 -6q-24 0 -42 20q-19 20 -19 44q0 44 46 61z" />
    <glyph glyph-name="idieresis" unicode="&#xef;" horiz-adv-x="222" 
d="M39 458q0 80 72 80t72 -80v-384q0 -80 -72 -80t-72 80v384zM221 747q72 0 72 -72t-72 -72t-72 72t72 72zM1 747q72 0 72 -72t-72 -72t-72 72t72 72z" />
    <glyph glyph-name="eth" unicode="&#xf0;" horiz-adv-x="556" 
d="M91 70q-71 80 -71 195q0 99 68 175q72 81 174 81q74 0 113 -43l2 2q-40 88 -112 131l-66 -35q-51 -27 -67 -27q-35 0 -35 36q0 17 13 29q7 6 26 16l50 26l-22 9q-14 6 -23 13q-25 16 -25 36q0 62 78 62q31 0 68 -15q24 -10 62 -32l80 43q21 11 36 11q35 0 35 -38
q0 -22 -40 -43l-52 -28q83 -78 119 -172q34 -89 34 -213q0 -132 -71 -216q-72 -85 -187 -85q-114 0 -187 82zM195 354q-31 -38 -31 -89q0 -57 28 -98q31 -47 86 -47t86 47q28 41 28 98q-2 54 -30 91q-32 39 -85 39q-50 0 -82 -41z" />
    <glyph glyph-name="ntilde" unicode="&#xf1;" horiz-adv-x="556" 
d="M41 458q0 80 72 80q58 0 66 -53q42 59 139 59q87 0 141 -51q56 -53 56 -143v-276q0 -80 -72 -80t-72 80v251q0 99 -94 99q-92 0 -92 -99v-251q0 -80 -72 -80t-72 80v384zM112 657q0 88 95 88q26 0 64 -12q1 -1 4 -1l10 -4q8 -3 13 -4q13 -4 21 -4q7 0 17 5q4 1 9 4l21 11
q5 3 10 4q12 5 21 5q47 0 47 -56q0 -36 -31 -62q-30 -25 -67 -25q-18 0 -60 13l-16 4q-8 3 -14 4q-15 4 -23 4t-17 -4l-23 -14l-9 -4q-11 -4 -22 -4q-50 0 -50 52z" />
    <glyph glyph-name="ograve" unicode="&#xf2;" horiz-adv-x="556" 
d="M464 459q72 -81 72 -194q0 -115 -71 -195q-73 -82 -187 -82t-187 82q-71 80 -71 195q0 113 72 194q75 85 186 85t186 -85zM191 364q-27 -41 -27 -99q0 -57 28 -98q31 -47 86 -47t86 47q28 41 28 98q0 58 -27 99q-32 48 -87 48t-87 -48zM373 711q28 -15 28 -40
q0 -27 -15 -50q-16 -23 -38 -23q-11 0 -40 10l-112 44q-41 15 -41 59q0 22 16 41q17 21 38 21q13 0 38 -10z" />
    <glyph glyph-name="oacute" unicode="&#xf3;" horiz-adv-x="556" 
d="M464 459q72 -81 72 -194q0 -115 -71 -195q-73 -82 -187 -82t-187 82q-71 80 -71 195q0 113 72 194q75 85 186 85t186 -85zM191 364q-27 -41 -27 -99q0 -57 28 -98q31 -47 86 -47t86 47q28 41 28 98q0 58 -27 99q-32 48 -87 48t-87 -48zM309 763q25 10 38 10q21 0 38 -21
q16 -19 16 -41q0 -44 -41 -59l-112 -44q-29 -10 -40 -10q-22 0 -38 23q-15 23 -15 50q0 25 28 40z" />
    <glyph glyph-name="ocircumflex" unicode="&#xf4;" horiz-adv-x="556" 
d="M464 459q72 -81 72 -194q0 -115 -71 -195q-73 -82 -187 -82t-187 82q-71 80 -71 195q0 113 72 194q75 85 186 85t186 -85zM191 364q-27 -41 -27 -99q0 -57 28 -98q31 -47 86 -47t86 47q28 41 28 98q0 58 -27 99q-32 48 -87 48t-87 -48zM278 764l106 -43q46 -19 46 -61
q0 -24 -18 -44q-19 -20 -43 -20q-8 0 -23 6l-68 29l-68 -29q-15 -6 -23 -6q-24 0 -42 20q-19 20 -19 44q0 44 46 61z" />
    <glyph glyph-name="otilde" unicode="&#xf5;" horiz-adv-x="556" 
d="M464 459q72 -81 72 -194q0 -115 -71 -195q-73 -82 -187 -82t-187 82q-71 80 -71 195q0 113 72 194q75 85 186 85t186 -85zM191 364q-27 -41 -27 -99q0 -57 28 -98q31 -47 86 -47t86 47q28 41 28 98q0 58 -27 99q-32 48 -87 48t-87 -48zM112 657q0 88 95 88q26 0 64 -12
q1 -1 4 -1l10 -4q8 -3 13 -4q13 -4 21 -4q7 0 17 5q4 1 9 4l21 11q5 3 10 4q12 5 21 5q47 0 47 -56q0 -36 -31 -62q-30 -25 -67 -25q-18 0 -60 13l-16 4q-8 3 -14 4q-15 4 -23 4t-17 -4l-23 -14l-9 -4q-11 -4 -22 -4q-50 0 -50 52z" />
    <glyph glyph-name="odieresis" unicode="&#xf6;" horiz-adv-x="556" 
d="M464 459q72 -81 72 -194q0 -115 -71 -195q-73 -82 -187 -82t-187 82q-71 80 -71 195q0 113 72 194q75 85 186 85t186 -85zM191 364q-27 -41 -27 -99q0 -57 28 -98q31 -47 86 -47t86 47q28 41 28 98q0 58 -27 99q-32 48 -87 48t-87 -48zM388 747q72 0 72 -72t-72 -72
t-72 72t72 72zM168 747q72 0 72 -72t-72 -72t-72 72t72 72z" />
    <glyph glyph-name="divide" unicode="&#xf7;" horiz-adv-x="600" 
d="M505 313q60 0 60 -60t-60 -60h-410q-60 0 -60 60t60 60h410zM300 124q78 0 78 -78t-78 -78t-78 78t78 78zM300 538q78 0 78 -78t-78 -78t-78 78t78 78z" />
    <glyph glyph-name="oslash" unicode="&#xf8;" horiz-adv-x="556" 
d="M344 388q-26 24 -66 24q-55 0 -87 -48q-27 -41 -27 -99q0 -29 9 -55zM68 101q-48 71 -48 164q0 113 72 194q75 85 186 85q90 0 159 -59l46 48q14 15 27 15q41 0 41 -41q0 -17 -10 -27l-52 -54q47 -74 47 -161q0 -115 -71 -195q-73 -82 -187 -82q-92 0 -157 54l-50 -52
q-12 -12 -25 -12q-41 0 -41 41q0 17 10 27zM216 142q25 -22 62 -22q55 0 86 47q28 41 28 98q0 28 -7 53z" />
    <glyph glyph-name="ugrave" unicode="&#xf9;" horiz-adv-x="556" 
d="M41 458q0 80 72 80t72 -80v-257q0 -43 29 -69q26 -24 64 -24t65 24q28 26 28 69v257q0 80 72 80t72 -80v-260q0 -97 -61 -153q-63 -57 -176 -57t-175 57q-62 56 -62 153v260zM373 711q28 -15 28 -40q0 -27 -15 -50q-16 -23 -38 -23q-11 0 -40 10l-112 44q-41 15 -41 59
q0 22 16 41q17 21 38 21q13 0 38 -10z" />
    <glyph glyph-name="uacute" unicode="&#xfa;" horiz-adv-x="556" 
d="M41 458q0 80 72 80t72 -80v-257q0 -43 29 -69q26 -24 64 -24t65 24q28 26 28 69v257q0 80 72 80t72 -80v-260q0 -97 -61 -153q-63 -57 -176 -57t-175 57q-62 56 -62 153v260zM309 763q25 10 38 10q21 0 38 -21q16 -19 16 -41q0 -44 -41 -59l-112 -44q-29 -10 -40 -10
q-22 0 -38 23q-15 23 -15 50q0 25 28 40z" />
    <glyph glyph-name="ucircumflex" unicode="&#xfb;" horiz-adv-x="556" 
d="M41 458q0 80 72 80t72 -80v-257q0 -43 29 -69q26 -24 64 -24t65 24q28 26 28 69v257q0 80 72 80t72 -80v-260q0 -97 -61 -153q-63 -57 -176 -57t-175 57q-62 56 -62 153v260zM278 764l106 -43q46 -19 46 -61q0 -24 -18 -44q-19 -20 -43 -20q-8 0 -23 6l-68 29l-68 -29
q-15 -6 -23 -6q-24 0 -42 20q-19 20 -19 44q0 44 46 61z" />
    <glyph glyph-name="udieresis" unicode="&#xfc;" horiz-adv-x="556" 
d="M41 458q0 80 72 80t72 -80v-257q0 -43 29 -69q26 -24 64 -24t65 24q28 26 28 69v257q0 80 72 80t72 -80v-260q0 -97 -61 -153q-63 -57 -176 -57t-175 57q-62 56 -62 153v260zM388 747q72 0 72 -72t-72 -72t-72 72t72 72zM168 747q72 0 72 -72t-72 -72t-72 72t72 72z" />
    <glyph glyph-name="yacute" unicode="&#xfd;" horiz-adv-x="481" 
d="M5 439q-7 19 -7 37q0 26 23 45q21 17 45 17q53 0 72 -51l99 -271l106 271q19 51 72 51q24 0 45 -17q23 -19 23 -45q0 -22 -7 -37l-241 -600q-23 -57 -68 -57q-75 0 -75 62q0 19 9 42l63 156zM272 763q25 10 38 10q21 0 38 -21q16 -19 16 -41q0 -44 -41 -59l-112 -44
q-29 -10 -40 -10q-22 0 -38 23q-15 23 -15 50q0 25 28 40z" />
    <glyph glyph-name="thorn" unicode="&#xfe;" 
d="M41 690q0 80 72 80t72 -80v-212h2q38 66 130 66q104 0 173 -84q64 -80 64 -187q0 -110 -60 -193q-67 -92 -172 -92q-79 0 -137 50v-176q0 -80 -72 -80t-72 80v828zM213 165q31 -45 85 -45q52 0 84 48q28 42 28 99q0 56 -28 98q-32 47 -84 47q-55 0 -86 -49
q-27 -42 -27 -101q0 -58 28 -97z" />
    <glyph glyph-name="ydieresis" unicode="&#xff;" horiz-adv-x="481" 
d="M5 439q-7 19 -7 37q0 26 23 45q21 17 45 17q53 0 72 -51l99 -271l106 271q19 51 72 51q24 0 45 -17q23 -19 23 -45q0 -22 -7 -37l-241 -600q-23 -57 -68 -57q-75 0 -75 62q0 19 9 42l63 156zM351 747q72 0 72 -72t-72 -72t-72 72t72 72zM131 747q72 0 72 -72t-72 -72
t-72 72t72 72z" />
    <glyph glyph-name="dotlessi" unicode="&#x131;" horiz-adv-x="222" 
d="M39 458q0 80 72 80t72 -80v-384q0 -80 -72 -80t-72 80v384z" />
    <glyph glyph-name="Lslash" unicode="&#x141;" horiz-adv-x="426" 
d="M45 240l-39 -30q-9 -7 -17 -9q-4 -1 -8 -1h-6q-44 0 -44 52q0 26 53 66l61 46v276q0 78 75 78t75 -78v-162l110 82q11 8 23 11l10 2h9q44 0 44 -47q0 -18 -16 -35q-6 -7 -16 -15l-164 -120v-218h178q36 0 56 -23q17 -21 16 -49q-4 -66 -72 -66h-250q-78 0 -78 82v158z
" />
    <glyph glyph-name="lslash" unicode="&#x142;" horiz-adv-x="222" 
d="M39 260l-5 -5q-25 -25 -47 -25q-43 0 -43 48q0 20 21 41l74 74v297q0 80 72 80t72 -80v-158l5 5q27 27 50 27q40 0 40 -45q0 -25 -21 -46l-74 -74v-325q0 -80 -72 -80t-72 80v186z" />
    <glyph glyph-name="OE" unicode="&#x152;" horiz-adv-x="963" 
d="M693 428h166q73 0 73 -69t-73 -69h-166v-152h187q71 0 71 -69t-71 -69h-278q-30 0 -39 17q-4 7 -5 18q-1 5 -1 11v11h-2q-30 -40 -88 -57q-24 -6 -53 -10q-24 -2 -53 -2q-151 0 -248 106q-96 105 -96 262q0 158 96 262q97 106 248 106q55 0 104 -18q54 -19 91 -57l2 2
q0 39 15 50q13 11 57 11h241q71 0 71 -69t-71 -69h-178v-146zM219 195q51 -69 142 -69t142 69q46 63 46 161q0 97 -47 160q-52 70 -141 70t-141 -70q-47 -63 -47 -160q0 -98 46 -161z" />
    <glyph glyph-name="oe" unicode="&#x153;" horiz-adv-x="907" 
d="M753 314q-14 110 -114 110q-101 0 -115 -110h229zM527 218q7 -51 47 -79q37 -25 90 -25q25 0 51 9q18 7 43 20l19 11q11 6 18 9q19 9 31 9q59 0 59 -62q0 -45 -77 -84q-76 -38 -158 -38q-123 0 -191 83q-68 -83 -181 -83q-114 0 -187 82q-71 80 -71 195q0 113 72 194
q75 85 186 85q56 0 106 -24q43 -20 80 -57q28 36 70 57q47 24 102 24q104 0 183 -78q78 -79 78 -184q0 -64 -63 -64h-307zM192 167q31 -47 86 -47t86 47q28 41 28 98q0 58 -27 99q-32 48 -87 48t-87 -48q-27 -41 -27 -99q0 -57 28 -98z" />
    <glyph glyph-name="Scaron" unicode="&#x160;" horiz-adv-x="537" 
d="M324 719q36 -5 65 -15q77 -28 77 -80q0 -74 -67 -74q-13 0 -30 5q-6 1 -14 4q-3 2 -8 3l-7 3q-20 7 -34 10q-20 5 -40 5q-82 0 -82 -65q0 -33 52 -53q17 -7 54 -18l30 -8q17 -6 31 -10q36 -13 61 -26q32 -18 54 -40q52 -52 52 -140q0 -104 -76 -170q-73 -62 -180 -62
q-35 0 -70 4q-46 6 -80 17q-43 13 -66 34q-27 24 -27 57q0 71 67 71q15 0 37 -6l40 -13q27 -10 44 -14q25 -6 47 -6q102 0 102 86q0 38 -52 61q-19 8 -54 18l-61 18q-36 11 -61 23q-32 15 -54 34q-52 46 -52 125q0 102 74 166q71 61 174 61q25 0 54 -5zM163 797
q-46 17 -46 61q0 24 19 44q18 20 42 20q8 0 23 -6l68 -29l68 29q15 6 23 6q24 0 43 -20q18 -20 18 -44q0 -42 -46 -61l-106 -43z" />
    <glyph glyph-name="scaron" unicode="&#x161;" horiz-adv-x="426" 
d="M344 376q-9 0 -25 7l-32 14q-21 10 -36 14q-20 7 -36 7q-49 0 -49 -40q0 -21 39 -40q13 -6 40 -16l46 -18q57 -24 86 -53q39 -38 39 -94q0 -73 -56 -120q-57 -49 -149 -49q-67 0 -131 31q-70 34 -70 80q0 20 16 40q19 24 46 24q19 0 37 -8q8 -3 17 -8q3 -1 8 -4
q1 -1 4 -2q3 -2 4 -2q21 -12 35 -17q21 -8 44 -8q57 0 57 41q0 21 -39 39l-86 34q-57 24 -86 53q-39 39 -39 95q0 75 55 122q54 46 140 46q63 0 117 -25q63 -30 63 -79q0 -64 -59 -64zM107 635q-46 17 -46 61q0 24 19 44q18 20 42 20q8 0 23 -6l68 -29l68 29q15 6 23 6
q24 0 43 -20q18 -20 18 -44q0 -42 -46 -61l-106 -43z" />
    <glyph glyph-name="Ydieresis" unicode="&#x178;" horiz-adv-x="536" 
d="M193 334l-189 266q-14 20 -14 45q0 73 72 73q41 0 62 -30l144 -209l144 209q21 30 62 30q72 0 72 -73q0 -25 -14 -45l-189 -266v-267q0 -73 -75 -73t-75 73v267zM378 909q72 0 72 -72t-72 -72t-72 72t72 72zM158 909q72 0 72 -72t-72 -72t-72 72t72 72z" />
    <glyph glyph-name="Zcaron" unicode="&#x17d;" horiz-adv-x="593" 
d="M499 132q72 0 72 -66q0 -28 -22 -47t-50 -19h-393q-84 0 -84 72q0 30 20 58l322 450h-263q-70 0 -70 64q0 68 70 68h366q84 0 84 -72q0 -35 -22 -64l-320 -444h290zM191 797q-46 17 -46 61q0 24 19 44q18 20 42 20q8 0 23 -6l68 -29l68 29q15 6 23 6q24 0 43 -20
q18 -20 18 -44q0 -42 -46 -61l-106 -43z" />
    <glyph glyph-name="zcaron" unicode="&#x17e;" horiz-adv-x="481" 
d="M250 406h-167q-65 0 -65 63t65 63h327q6 0 13 -2q9 -2 15 -6q19 -12 19 -37q0 -23 -15 -43l-227 -318h190q65 0 65 -63t-65 -63h-335q-59 0 -59 49q0 11 5 23q1 4 4 9zM135 635q-46 17 -46 61q0 24 19 44q18 20 42 20q8 0 23 -6l68 -29l68 29q15 6 23 6q24 0 43 -20
q18 -20 18 -44q0 -42 -46 -61l-106 -43z" />
    <glyph glyph-name="florin" unicode="&#x192;" 
d="M250 574q25 150 165 150q40 0 66 -13q32 -18 32 -55q0 -33 -23 -47q-19 -11 -55 -11t-46 -54l-22 -121h35q70 0 70 -62q0 -64 -95 -64h-33l-63 -346q-14 -80 -50 -121q-43 -48 -120 -48q-44 0 -66 12q-31 15 -31 53q0 40 29 53q11 5 26 7q6 1 13 1h11q21 0 34 25
q4 8 7 20l3 9q0 4 1 8l61 327h-25q-68 0 -68 61q0 65 75 65h40z" />
    <glyph glyph-name="circumflex" unicode="&#x2c6;" horiz-adv-x="222" 
d="M111 764l106 -43q46 -19 46 -61q0 -24 -18 -44q-19 -20 -43 -20q-8 0 -23 6l-68 29l-68 -29q-15 -6 -23 -6q-24 0 -42 20q-19 20 -19 44q0 44 46 61z" />
    <glyph glyph-name="caron" unicode="&#x2c7;" horiz-adv-x="222" 
d="M5 635q-46 17 -46 61q0 24 19 44q18 20 42 20q8 0 23 -6l68 -29l68 29q15 6 23 6q24 0 43 -20q18 -20 18 -44q0 -42 -46 -61l-106 -43z" />
    <glyph glyph-name="uni02C9" unicode="&#x2c9;" horiz-adv-x="222" 
d="M204 730q65 0 65 -60t-65 -60h-186q-65 0 -65 60t65 60h186z" />
    <glyph glyph-name="breve" unicode="&#x2d8;" horiz-adv-x="222" 
d="M1 761q21 0 35 -11q8 -6 20 -23t20 -23q14 -11 35 -11q18 0 31 11q5 4 10 11l10 12q12 17 22 23q15 11 37 11q18 0 32 -20q13 -19 13 -40q0 -49 -55 -79q-46 -25 -100 -25q-56 0 -100 24q-55 29 -55 80q0 60 45 60z" />
    <glyph glyph-name="dotaccent" unicode="&#x2d9;" horiz-adv-x="222" 
d="M111 747q72 0 72 -72t-72 -72t-72 72t72 72z" />
    <glyph glyph-name="ring" unicode="&#x2da;" horiz-adv-x="222" 
d="M41 748q29 29 70 29t70 -29t29 -70t-29 -70t-70 -29t-70 29t-29 70t29 70zM111 633q45 0 45 45t-45 45t-45 -45t45 -45z" />
    <glyph glyph-name="ogonek" unicode="&#x2db;" horiz-adv-x="222" 
d="M191 0q-30 -15 -55 -46q-29 -36 -29 -67q0 -39 35 -39q5 0 11 1l17 5q6 1 11 1q21 0 21 -22t-30 -37q-29 -14 -69 -14q-92 0 -92 84q0 42 39 83q33 35 72 51h69z" />
    <glyph glyph-name="tilde" unicode="&#x2dc;" horiz-adv-x="222" 
d="M-55 657q0 88 95 88q26 0 64 -12q1 -1 4 -1l10 -4q8 -3 13 -4q13 -4 21 -4q7 0 17 5q4 1 9 4l21 11q5 3 10 4q12 5 21 5q47 0 47 -56q0 -36 -31 -62q-30 -25 -67 -25q-18 0 -60 13l-16 4q-8 3 -14 4q-15 4 -23 4t-17 -4l-23 -14l-9 -4q-11 -4 -22 -4q-50 0 -50 52z" />
    <glyph glyph-name="hungarumlaut" unicode="&#x2dd;" horiz-adv-x="222" 
d="M3 763q25 10 38 10q21 0 38 -21q16 -19 16 -41q0 -44 -41 -59l-112 -44q-29 -10 -40 -10q-22 0 -38 23q-15 23 -15 50q0 25 28 40zM281 763q25 10 38 10q21 0 38 -21q16 -19 16 -41q0 -44 -41 -59l-112 -44q-29 -10 -40 -10q-22 0 -38 23q-15 23 -15 50q0 25 28 40z" />
    <glyph glyph-name="Omega" unicode="&#x3a9;" horiz-adv-x="725" 
d="M173 116q-52 48 -83 113q-39 78 -39 166q0 135 86 228q90 97 228 97q72 0 133 -29q55 -27 96 -75q78 -92 78 -214q0 -89 -39 -170q-33 -68 -86 -116v-3h139v-113h-276v83q52 34 83 99q37 78 37 190q0 98 -42 163q-46 69 -124 69q-77 0 -124 -67q-47 -66 -47 -171
q0 -103 36 -182q33 -71 84 -101v-83h-277v113h137v3z" />
    <glyph glyph-name="mu" unicode="&#x3bc;" horiz-adv-x="556" 
d="M41 458q0 80 72 80t72 -80v-257q0 -43 29 -69q26 -24 64 -24t65 24q28 26 28 69v257q0 80 72 80t72 -80v-384q0 -80 -72 -80t-72 69h-2q-15 -38 -43 -58q-24 -17 -49 -17q-57 0 -90 50h-2v-176q0 -80 -72 -80t-72 80v596z" />
    <glyph glyph-name="pi" unicode="&#x3c0;" horiz-adv-x="623" 
d="M528 416v-264q0 -51 4 -91q3 -34 10 -61h-136q-18 30 -18 146v270h-133q-4 -95 -20 -208q-9 -63 -20 -113q-11 -57 -24 -95h-136q25 87 43 212q17 120 19 204q-67 0 -98 -10l-16 92q45 36 172 36h434l-10 -118h-71z" />
    <glyph glyph-name="endash" unicode="&#x2013;" horiz-adv-x="500" 
d="M440 350q60 0 60 -60t-60 -60h-380q-60 0 -60 60t60 60h380z" />
    <glyph glyph-name="emdash" unicode="&#x2014;" horiz-adv-x="1000" 
d="M1000 350q60 0 60 -60t-60 -60h-1000q-60 0 -60 60t60 60h1000z" />
    <glyph glyph-name="quoteleft" unicode="&#x2018;" horiz-adv-x="240" 
d="M134 468q-18 -34 -57 -34q-68 0 -68 66q0 9 4 20q1 5 4 10q1 4 4 10l83 150q19 34 58 34q69 0 69 -66q0 -9 -4 -20l-9 -20z" />
    <glyph glyph-name="quoteright" unicode="&#x2019;" horiz-adv-x="240" 
d="M134 468q-18 -34 -57 -34q-68 0 -68 66q0 9 4 20q1 5 4 10q1 4 4 10l83 150q19 34 58 34q69 0 69 -66q0 -9 -4 -20l-9 -20z" />
    <glyph glyph-name="quotesinglbase" unicode="&#x201a;" horiz-adv-x="240" 
d="M134 -100q-18 -34 -57 -34q-68 0 -68 66q0 9 4 20q1 5 4 10q1 4 4 10l83 150q19 34 58 34q69 0 69 -66q0 -9 -4 -20l-9 -20z" />
    <glyph glyph-name="quotedblleft" unicode="&#x201c;" horiz-adv-x="444" 
d="M338 468q-18 -34 -57 -34q-68 0 -68 66q0 9 4 20q1 5 4 10q1 4 4 10l83 150q19 34 58 34q69 0 69 -66q0 -9 -4 -20l-9 -20zM134 468q-18 -34 -57 -34q-68 0 -68 66q0 9 4 20q1 5 4 10q1 4 4 10l83 150q19 34 58 34q69 0 69 -66q0 -9 -4 -20l-9 -20z" />
    <glyph glyph-name="quotedblright" unicode="&#x201d;" horiz-adv-x="444" 
d="M338 468q-18 -34 -57 -34q-68 0 -68 66q0 9 4 20q1 5 4 10q1 4 4 10l83 150q19 34 58 34q69 0 69 -66q0 -9 -4 -20l-9 -20zM134 468q-18 -34 -57 -34q-68 0 -68 66q0 9 4 20q1 5 4 10q1 4 4 10l83 150q19 34 58 34q69 0 69 -66q0 -9 -4 -20l-9 -20z" />
    <glyph glyph-name="quotedblbase" unicode="&#x201e;" horiz-adv-x="444" 
d="M338 -100q-18 -34 -57 -34q-68 0 -68 66q0 9 4 20q1 5 4 10q1 4 4 10l83 150q19 34 58 34q69 0 69 -66q0 -9 -4 -20l-9 -20zM134 -100q-18 -34 -57 -34q-68 0 -68 66q0 9 4 20q1 5 4 10q1 4 4 10l83 150q19 34 58 34q69 0 69 -66q0 -9 -4 -20l-9 -20z" />
    <glyph glyph-name="dagger" unicode="&#x2020;" horiz-adv-x="630" 
d="M246 376h-164q-57 0 -57 63t57 63h164v153q0 69 69 69t69 -69v-153h164q57 0 57 -63t-57 -63h-164v-525q0 -69 -69 -69t-69 69v525z" />
    <glyph glyph-name="daggerdbl" unicode="&#x2021;" horiz-adv-x="630" 
d="M246 6h-164q-57 0 -57 63t57 63h164v244h-164q-57 0 -57 63t57 63h164v153q0 69 69 69t69 -69v-153h164q57 0 57 -63t-57 -63h-164v-244h164q57 0 57 -63t-57 -63h-164v-155q0 -69 -69 -69t-69 69v155z" />
    <glyph glyph-name="bullet" unicode="&#x2022;" horiz-adv-x="500" 
d="M124 482q53 52 126 52q74 0 126 -52t52 -126q0 -73 -52 -126q-52 -52 -126 -52q-73 0 -126 52q-52 53 -52 126q0 74 52 126z" />
    <glyph glyph-name="ellipsis" unicode="&#x2026;" horiz-adv-x="1000" 
d="M167 144q78 0 78 -78t-78 -78t-78 78t78 78zM500 144q78 0 78 -78t-78 -78t-78 78t78 78zM833 144q78 0 78 -78t-78 -78t-78 78t78 78z" />
    <glyph glyph-name="perthousand" unicode="&#x2030;" horiz-adv-x="1074" 
d="M779 36q-44 47 -44 113t44 114t110 48t110 -48t44 -114t-44 -113q-44 -48 -110 -48t-110 48zM941 149q0 60 -52 60t-52 -60q0 -59 52 -59t52 59zM237 562q0 60 -52 60t-52 -60q0 -59 52 -59t52 59zM75 449q-44 47 -44 113t44 114t110 48t110 -48t44 -114t-44 -113
q-44 -48 -110 -48t-110 48zM427 36q-44 47 -44 113t44 114t110 48t110 -48t44 -114t-44 -113q-44 -48 -110 -48t-110 48zM589 149q0 60 -52 60t-52 -60q0 -59 52 -59t52 59zM480 698q17 32 46 32q59 0 59 -56q0 -15 -8 -30l-336 -629q-24 -33 -45 -33q-20 0 -38 16
q-19 17 -19 39q0 10 4 21l6 16z" />
    <glyph glyph-name="guilsinglleft" unicode="&#x2039;" horiz-adv-x="296" 
d="M169 281l79 -119q11 -16 11 -34q0 -63 -60 -63q-33 0 -50 25l-103 159q-9 13 -9 36q0 13 8 30q6 12 16 26l97 137q15 17 43 17q58 0 58 -55q0 -23 -11 -38z" />
    <glyph glyph-name="guilsinglright" unicode="&#x203a;" horiz-adv-x="296" 
d="M127 279l-79 119q-11 16 -11 34q0 63 60 63q33 0 50 -25l103 -159q9 -13 9 -36q0 -13 -8 -30q-6 -12 -16 -26l-97 -137q-15 -17 -43 -17q-58 0 -58 55q0 23 11 38z" />
    <glyph glyph-name="fraction" unicode="&#x2044;" horiz-adv-x="166" 
d="M201 698q17 32 46 32q59 0 59 -56q0 -15 -8 -30l-336 -629q-24 -33 -45 -33q-20 0 -38 16q-19 17 -19 39q0 10 4 21l6 16z" />
    <glyph glyph-name="Euro" unicode="&#x20ac;" 
d="M527 555q-19 19 -50 30q-37 14 -84 14q-123 0 -145 -122h246l-32 -93h-225q-1 -8 -1 -27q0 -24 1 -32h203l-32 -93h-159q21 -120 145 -120q45 0 82 13q31 11 51 29v-132q-18 -13 -54 -22q-45 -11 -103 -11q-231 0 -270 243h-83l33 93h40q-1 8 -1 31q0 19 1 28h-73l33 93
h49q20 117 83 179q69 67 188 67q52 0 99 -12q38 -10 58 -24v-132z" />
    <glyph glyph-name="afii61289" unicode="&#x2113;" horiz-adv-x="533" 
d="M515 136q-40 -77 -100 -113q-52 -32 -118 -32q-87 0 -135 49q-43 42 -52 114q-1 4 -1 11l-52 -40l-34 73q9 8 22 18l11 9q6 5 11 8l40 35v250q0 130 55 199q50 64 133 64q74 0 113 -54q35 -49 35 -130q0 -85 -54 -175q-49 -80 -147 -173l1 -44q3 -102 87 -102q37 0 74 29
q30 24 55 63zM242 375q52 59 82 117q31 61 31 110q0 80 -52 80q-26 0 -41 -33q-20 -41 -20 -127v-147z" />
    <glyph glyph-name="trademark" unicode="&#x2122;" horiz-adv-x="1000" 
d="M166 622h-79q-45 0 -45 45t45 45h278q45 0 45 -45t-45 -45h-79v-262q0 -60 -60 -60t-60 60v262zM468 656q0 62 85 62q32 0 49 -10q23 -13 40 -52l71 -182l71 182q17 39 40 52q17 10 49 10q85 0 85 -62v-296q0 -60 -54 -60t-54 60v208h-2l-81 -232q-5 -11 -12 -19
q-14 -17 -42 -17t-42 17q-10 11 -21 43l-72 208h-2v-208q0 -60 -54 -60t-54 60v296z" />
    <glyph glyph-name="uni2126" unicode="&#x2126;" horiz-adv-x="725" 
d="M173 116q-52 48 -83 113q-39 78 -39 166q0 135 86 228q90 97 228 97q72 0 133 -29q55 -27 96 -75q78 -92 78 -214q0 -89 -39 -170q-33 -68 -86 -116v-3h139v-113h-276v83q52 34 83 99q37 78 37 190q0 98 -42 163q-46 69 -124 69q-77 0 -124 -67q-47 -66 -47 -171
q0 -103 36 -182q33 -71 84 -101v-83h-277v113h137v3z" />
    <glyph glyph-name="estimated" unicode="&#x212e;" horiz-adv-x="887" 
d="M190 346q-5 0 -5 -5v-200q0 -12 8 -23q107 -109 251 -109q157 0 263 122h59q-121 -142 -323 -142q-170 0 -289 107q-120 108 -120 260t120 260t289 108t289 -108t120 -260v-10h-662zM702 573q0 14 -10 24q-107 105 -248 105q-142 0 -250 -108q-9 -10 -9 -25v-197
q0 -2 1 -4q2 -3 4 -3h507q3 0 4 3q1 2 1 4v201z" />
    <glyph glyph-name="partialdiff" unicode="&#x2202;" horiz-adv-x="594" 
d="M67 743q14 10 29 19q20 11 41 19q56 21 121 21q122 0 201 -98q86 -106 86 -289q0 -193 -77 -307q-79 -115 -215 -115q-102 0 -163 81q-53 70 -53 161q0 120 65 195q62 72 157 72q55 0 100 -30q16 -12 30 -26q11 -12 18 -23h1q1 5 1 16v15q0 94 -45 162q-49 72 -124 72
q-43 0 -81 -16q-29 -13 -53 -33zM268 108q51 0 88 66q32 58 40 135q-8 28 -34 52q-33 29 -74 29q-49 0 -82 -49q-31 -47 -31 -112q0 -51 25 -85q27 -36 67 -36h1z" />
    <glyph glyph-name="uni2206" unicode="&#x2206;" horiz-adv-x="675" 
d="M26 80l231 644h167l223 -642v-82h-621v80zM497 112l-105 283l-27 88q-1 1 -1 3l-1 3q-6 16 -8 24q-5 13 -8 23l-11 39h-3l-19 -64l-19 -57q-8 -25 -13 -44l-111 -298h326z" />
    <glyph glyph-name="product" unicode="&#x220f;" horiz-adv-x="743" 
d="M614 583v-681h-138v681h-210v-681h-138v681h-104v126h693v-126h-103z" />
    <glyph glyph-name="summation" unicode="&#x2211;" horiz-adv-x="573" 
d="M23 -98v88l243 316l-234 306v97h505v-118h-318v-3l203 -259l-226 -295v-4h358v-128h-531z" />
    <glyph glyph-name="minus" unicode="&#x2212;" horiz-adv-x="600" 
d="M505 313q60 0 60 -60t-60 -60h-410q-60 0 -60 60t60 60h410z" />
    <glyph glyph-name="uni2215" unicode="&#x2215;" horiz-adv-x="166" 
d="M201 698q17 32 46 32q59 0 59 -56q0 -15 -8 -30l-336 -629q-24 -33 -45 -33q-20 0 -38 16q-19 17 -19 39q0 10 4 21l6 16z" />
    <glyph glyph-name="uni2219" unicode="&#x2219;" horiz-adv-x="268" 
d="M189 336q23 -23 23 -55q0 -78 -78 -78t-78 78t78 78q32 0 55 -23z" />
    <glyph glyph-name="radical" unicode="&#x221a;" horiz-adv-x="611" 
d="M391 -141h-111l-150 440l-76 -30l-22 76l180 74l103 -314q11 -51 21 -90l1 -1l7 43q5 32 10 55l171 740h97z" />
    <glyph glyph-name="infinity" unicode="&#x221e;" horiz-adv-x="794" 
d="M745 292q0 -81 -51 -132q-47 -47 -114 -47q-47 0 -88 23q-47 28 -94 92q-44 -56 -83 -82q-48 -33 -105 -33q-66 0 -113 48q-49 50 -49 126q0 78 49 128q48 49 122 49q54 0 100 -30q40 -26 83 -82l33 37q21 23 40 37q51 39 110 38q69 0 114 -47q46 -48 46 -124v-1z
M221 188q37 0 75 30q15 13 32 31l29 35l-30 40q-17 21 -31 35q-36 32 -79 32q-92 0 -92 -105q0 -41 27 -69q27 -29 68 -29h1zM577 391q-39 0 -80 -36q-14 -13 -31 -33l-26 -31q80 -103 142 -103q38 0 64 33q22 29 22 65q0 105 -90 105h-1z" />
    <glyph glyph-name="integral" unicode="&#x222b;" horiz-adv-x="410" 
d="M374 772q-18 9 -37 9q-33 0 -51 -27q-26 -33 -26 -168q0 -55 2 -119l11 -234q2 -68 2 -130q0 -136 -36 -203q-21 -40 -60 -60q-35 -18 -77 -18q-47 0 -81 17l17 98l19 -6q13 -4 25 -4q29 0 44 20q27 36 27 154q0 63 -2 133l-11 240q-2 67 -2 125q0 167 62 232
q44 48 123 48q40 0 64 -12z" />
    <glyph glyph-name="approxequal" unicode="&#x2248;" horiz-adv-x="561" 
d="M521 418q-56 -106 -140 -106q-49 0 -113 40q-14 9 -22 13q-11 7 -20 11q-23 10 -45 10q-30 0 -55 -23q-10 -9 -21 -23l-10 -14q-2 -2 -4 -6q-1 -2 -3 -4l-1 -1q-1 -1 -1 -2l-49 45q53 106 150 106q32 0 62 -13q11 -5 24 -12l46 -27q13 -8 21 -12q21 -10 41 -10
q27 0 50 20q18 16 42 53zM521 225q-56 -106 -140 -106q-45 0 -113 40l-22 14q-12 7 -21 11q-22 10 -44 10q-31 0 -55 -23q-10 -9 -21 -24l-18 -25q-1 -1 -1 -2l-49 46q53 105 150 105q32 0 62 -13q11 -4 24 -11l64 -38q24 -12 44 -12q28 0 50 20q17 15 42 53z" />
    <glyph glyph-name="notequal" unicode="&#x2260;" horiz-adv-x="561" 
d="M376 435h136v-79h-166l-59 -136h225v-80h-255l-50 -115l-63 26l40 89h-136v80h166l59 136h-225v79h255l49 113l63 -25z" />
    <glyph glyph-name="lessequal" unicode="&#x2264;" horiz-adv-x="561" 
d="M54 328v87l455 226v-92l-377 -176v-2l377 -177v-92zM50 -16v81h463v-81h-463z" />
    <glyph glyph-name="greaterequal" unicode="&#x2265;" horiz-adv-x="561" 
d="M511 414v-86l-455 -226v92l376 177v2l-377 176v92zM51 -16v81h460v-81h-460z" />
    <glyph glyph-name="lozenge" unicode="&#x25ca;" horiz-adv-x="611" 
d="M358 -51h-111l-197 405l202 405h111l198 -405zM327 586q-15 35 -19 61h-4l-8 -30l-11 -31l-113 -229l113 -239q11 -30 17 -58h5q8 35 17 56l114 235z" />
    <glyph glyph-name="glyph253" horiz-adv-x="842" 
d="M403 713h2q56 0 91 -60q82 0 181 -73q119 -106 119 -251q0 -173 -154 -280q-80 -49 -171 -49q-189 0 -295 181q-33 73 -33 141v27l2 13q-104 71 -104 144v11q0 86 159 147q24 9 99 16q66 33 104 33zM301 649h-15q-115 0 -201 -90q-17 -24 -17 -51q0 -66 106 -131l-3 -48
q0 -178 173 -274q65 -26 117 -26h15q141 0 238 126q55 83 55 170q0 157 -141 255q-57 35 -119 42q0 2 -31 3q-27 61 -73 61q-39 0 -104 -37zM405 616q46 -84 46 -152q-36 -25 -85 -25l-7 -9v-11q8 -11 15 -11q101 0 142 97q-2 14 -14 14h-2q-14 0 -18 -20h-4l-11 59h11
q116 0 196 -121q25 -54 25 -97v-24q0 -105 -102 -183q-63 -36 -119 -36h-17q-119 0 -197 124q-24 48 -24 97v26q0 37 19 78h-2q-59 0 -117 75l-4 13q6 24 79 57q36 14 80 14h9q36 0 81 -115l11 -3h2q14 0 14 14v2q-15 60 -66 117q15 11 55 20h4zM204 501q0 -12 11 -17l40 2
q46 0 80 -29h9q11 6 11 17q0 25 -87 43h-28q-36 0 -36 -16z" />
    <glyph glyph-name="glyph254" horiz-adv-x="744" 
d="M359 712h32q131 0 247 -118q90 -108 90 -225v-24q0 -166 -158 -285q-94 -60 -195 -60q-207 0 -322 195q-37 80 -37 164q0 173 151 289q96 64 192 64zM48 367v-26q0 -127 118 -237q97 -72 197 -72h24q135 0 245 127q67 91 67 200q0 157 -138 263q-85 61 -192 61
q-175 0 -284 -170q-37 -76 -37 -146zM373 608q123 0 205 -107q46 -67 46 -146q0 -144 -142 -225q-55 -24 -97 -24h-22q-124 0 -207 124q-34 59 -34 125v8q0 129 125 211q63 34 126 34zM231 413h-29q-19 0 -19 -16v-2q0 -16 16 -16h20l4 -4v-38l-4 -4h-17q-19 0 -19 -16v-2
q0 -16 16 -16h32q54 -100 140 -100h12q66 0 111 52v7q0 11 -9 16h-8q-5 0 -42 -28q-30 -12 -52 -12h-2q-72 0 -107 63l1 2h140q16 0 16 16v2q0 16 -18 16h-150l-5 6v28q1 12 5 12h152q16 0 16 16v2q0 16 -18 16h-139v4q40 61 107 61q45 0 93 -41h4q16 2 16 16v1q0 30 -89 56
l-28 3q-92 0 -146 -100z" />
    <glyph glyph-name="glyph255" horiz-adv-x="749" 
d="M362 713h25q135 0 248 -112q96 -109 96 -237v-12q0 -182 -170 -300q-92 -52 -186 -52q-199 0 -316 187q-41 83 -41 166v3q0 198 182 313q86 44 162 44zM47 356q0 -163 146 -270q85 -54 173 -54h17q161 0 270 154q49 86 49 171q0 181 -173 288q-75 39 -155 39
q-186 0 -290 -178q-37 -75 -37 -150zM375 609q145 0 226 -142q26 -60 26 -110q0 -120 -103 -203q-70 -48 -141 -48h-17q-129 0 -212 129q-30 57 -30 110v23q0 119 116 202q64 39 135 39zM209 421q4 -17 19 -17q16 0 21 27q26 31 57 31l28 -7q13 7 13 19q0 21 -45 21
q-61 0 -90 -66zM414 449q7 -37 37 -37q37 7 37 31v8q-6 35 -35 35h-4q-35 -6 -35 -37zM382 238h-15q-65 0 -110 50l-12 4q-13 0 -16 -20q22 -39 85 -61q25 -8 49 -8h19q92 0 146 89q20 41 20 60q-4 13 -16 13h-8q-8 0 -24 -56q-47 -71 -118 -71z" />
    <glyph glyph-name="glyph256" horiz-adv-x="1799" 
d="M376 712q59 0 92 -60q83 0 187 -76l44 -47q102 123 256 123q145 0 250 -121q106 121 257 121q164 0 271 -149q53 -85 53 -179q0 -166 -150 -273q-84 -51 -165 -51h-23q-135 0 -240 119v1q-110 -120 -245 -120h-18q-140 0 -246 120q-108 -120 -251 -120h-15
q-143 0 -249 128q-67 88 -67 202l1 32q-104 68 -104 151q0 92 171 153q47 10 73 10h8q55 29 110 36zM274 648h-6q-127 0 -213 -94q-13 -28 -13 -45q0 -68 107 -135q-4 -15 -4 -40v-11q0 -163 152 -258q72 -37 146 -37q156 0 252 140h5q47 -85 170 -129q44 -11 81 -11
q155 0 254 138q100 -138 257 -138q162 0 260 155q35 69 35 132v20q0 140 -134 241q-79 48 -165 48q-151 0 -253 -141q-97 141 -255 141q-151 0 -251 -141h-3q-58 93 -179 133l-65 10q-32 56 -68 56h-11q-35 0 -99 -34zM377 616q28 -36 42 -122q4 -11 4 -32q-35 -24 -81 -24
q-10 -5 -10 -16q0 -12 16 -15q99 0 140 92v4q-1 15 -15 15q-9 0 -21 -20h-1v1l-12 55l6 3q133 0 207 -135q20 -48 20 -95q0 -132 -124 -207q-56 -25 -107 -25q-119 0 -195 111q-33 49 -33 129q0 47 20 87q-65 0 -119 75l-4 10q0 28 96 65q36 9 62 9t38 -20q23 -20 53 -98
l13 -4q11 0 15 18q-22 66 -66 116v4q38 15 56 19zM945 554h16q113 0 189 -112q32 -55 32 -115v-8q0 -108 -100 -184q-61 -40 -132 -40q-109 0 -186 99q-42 60 -42 133q0 127 123 202q53 25 100 25zM1452 554h16q114 0 190 -112q32 -55 32 -115v-3q0 -132 -127 -204
q-49 -25 -105 -25q-114 0 -190 104q-39 59 -39 125q0 135 130 209q49 21 93 21zM177 497q4 -14 12 -14l37 3q43 0 83 -29l3 -3h1q7 0 15 12v11q-34 40 -108 40q-43 0 -43 -18v-2zM1329 377h-34q-8 -6 -8 -15q0 -17 20 -17h16v-41h-11q-25 0 -25 -16t20 -16h22
q51 -92 138 -92q63 0 104 50l1 2v2q-2 16 -16 16q-5 0 -42 -27q-26 -9 -38 -9h-20q-51 0 -88 56l1 2h127q15 0 18 16q-3 16 -22 16h-133q-6 2 -6 15v11q0 13 6 15h137q15 0 18 17q-3 12 -11 15h-131l-4 2q37 58 90 58h16q34 0 78 -38h4q12 0 16 15q0 24 -70 49l-26 4h-20
q-77 0 -127 -90zM802 383q1 -14 15 -14h8q5 0 14 25q19 25 47 25h8l21 -2q14 5 14 16q-7 20 -40 20q-58 0 -84 -60zM989 411v-2q5 -32 29 -32h10q22 0 28 32q-4 34 -35 34q-32 -5 -32 -32zM950 215q-61 0 -105 48l-8 4q-16 -4 -16 -17q0 -27 78 -58q31 -8 52 -8
q109 0 153 108l5 23v4q0 15 -15 15q-16 0 -24 -42q-38 -77 -120 -77z" />
    </font>
</defs>
</svg>
